<?xml version="1.0" encoding="UTF-8" standalone="no"?>
<!-- Created with Inkscape (http://www.inkscape.org/) -->

<svg
   width="297mm"
   height="210mm"
   viewBox="0 0 297 210"
   version="1.1"
   id="svg5"
   inkscape:version="1.3 (0e150ed6c4, 2023-07-21)"
   sodipodi:docname="-~+.svg"
   xmlns:inkscape="http://www.inkscape.org/namespaces/inkscape"
   xmlns:sodipodi="http://sodipodi.sourceforge.net/DTD/sodipodi-0.dtd"
   xmlns="http://www.w3.org/2000/svg"
   xmlns:svg="http://www.w3.org/2000/svg">
  <sodipodi:namedview
     id="namedview7"
     pagecolor="#ffffff"
     bordercolor="#666666"
     borderopacity="1.0"
     inkscape:pageshadow="2"
     inkscape:pageopacity="0.0"
     inkscape:pagecheckerboard="0"
     inkscape:document-units="mm"
     showgrid="false"
     inkscape:zoom="1.0476431"
     inkscape:cx="374.17323"
     inkscape:cy="322.15169"
     inkscape:window-width="1858"
     inkscape:window-height="1057"
     inkscape:window-x="-8"
     inkscape:window-y="-8"
     inkscape:window-maximized="1"
     inkscape:current-layer="layer1"
     showguides="false"
     inkscape:showpageshadow="2"
     inkscape:deskcolor="#d1d1d1">
    <inkscape:grid
       type="xygrid"
       id="grid64"
       originx="0"
       originy="0"
       spacingy="1"
       spacingx="1"
       units="mm"
       visible="false" />
  </sodipodi:namedview>
  <defs
     id="defs2" />
  <g
     inkscape:label="图层 1"
     inkscape:groupmode="layer"
     id="layer1">
    <path
       style="fill:#ffffff;stroke:#000000;stroke-width:0.577102;stroke-linecap:butt;stroke-linejoin:miter;stroke-miterlimit:4;stroke-dasharray:none;stroke-opacity:1"
       d="m 36.799237,92.6603 0.250536,35.38437"
       id="path60059" />
    <path
       id="path60057"
       style="fill:none;stroke:#000000;stroke-width:0.577102"
       inkscape:transform-center-x="5.0407337"
       d="M 54.301846,122.90693 H 36.840251 19.378657 l 8.730797,-15.12218 8.730797,-15.12217 8.730797,15.12217 z"
       inkscape:transform-center-y="3.4222406e-06" />
    <path
       style="fill:#ffffff;stroke:#000000;stroke-width:0.577102;stroke-linecap:butt;stroke-linejoin:miter;stroke-miterlimit:4;stroke-dasharray:1.73131, 0.577102;stroke-dashoffset:0;stroke-opacity:1"
       d="m 19.378653,122.90699 17.63011,-10.17876"
       id="path60061" />
    <path
       style="fill:#ffffff;stroke:#000000;stroke-width:0.577102;stroke-linecap:butt;stroke-linejoin:miter;stroke-miterlimit:4;stroke-dasharray:1.73131, 0.577102;stroke-dashoffset:0;stroke-opacity:1"
       d="M 54.301849,122.90699 37.008763,112.72823"
       id="path60063" />
    <path
       style="fill:#ffffff;stroke:#000000;stroke-width:0.577102;stroke-linecap:butt;stroke-linejoin:miter;stroke-miterlimit:4;stroke-dasharray:none;stroke-opacity:1"
       d="m 19.547283,122.83585 17.398694,4.99552"
       id="path60071" />
    <path
       style="fill:#ffffff;stroke:#000000;stroke-width:0.577102;stroke-linecap:butt;stroke-linejoin:miter;stroke-miterlimit:4;stroke-dasharray:none;stroke-opacity:1"
       d="m 54.363778,122.98112 -17.400133,4.76906"
       id="path60155" />
    <path
       style="fill:#ffffff;stroke:#000000;stroke-width:0.577102;stroke-linecap:butt;stroke-linejoin:miter;stroke-miterlimit:4;stroke-dasharray:none;stroke-opacity:1"
       d="m 95.969367,92.89995 -8.836181,33.74102"
       id="path60217" />
    <path
       id="path60219"
       style="fill:none;stroke:#000000;stroke-width:0.5771"
       inkscape:transform-center-x="5.0407312"
       d="M 113.31131,123.18492 H 95.849707 78.388117 l 8.730797,-15.12218 8.730793,-15.12216 8.730803,15.12216 z" />
    <path
       style="fill:#ffffff;stroke:#000000;stroke-width:0.577102;stroke-linecap:butt;stroke-linejoin:miter;stroke-miterlimit:4;stroke-dasharray:none;stroke-opacity:1"
       d="m 78.050306,123.26888 9.08288,3.37209"
       id="path60225" />
    <path
       style="fill:#ffffff;stroke:#000000;stroke-width:0.577102;stroke-linecap:butt;stroke-linejoin:miter;stroke-miterlimit:4;stroke-dasharray:none;stroke-opacity:1"
       d="m 113.18003,123.33701 -26.046844,3.30396"
       id="path60227" />
    <path
       style="fill:#ffffff;stroke:#000000;stroke-width:0.577102;stroke-linecap:butt;stroke-linejoin:miter;stroke-miterlimit:4;stroke-dasharray:none;stroke-opacity:1"
       d="m 95.969367,92.89995 -8.836181,33.74102"
       id="path60593" />
    <path
       id="path60595"
       style="fill:none;stroke:#000000;stroke-width:0.5771"
       inkscape:transform-center-x="5.0407312"
       d="M 113.31131,123.18492 H 95.849707 78.388117 l 8.730797,-15.12218 8.730793,-15.12216 8.730803,15.12216 z" />
    <path
       style="fill:#ffffff;stroke:#000000;stroke-width:0.577102;stroke-linecap:butt;stroke-linejoin:miter;stroke-miterlimit:4;stroke-dasharray:none;stroke-opacity:1"
       d="m 78.050306,123.26888 9.08288,3.37209"
       id="path60597" />
    <path
       style="fill:#ffffff;stroke:#000000;stroke-width:0.577102;stroke-linecap:butt;stroke-linejoin:miter;stroke-miterlimit:4;stroke-dasharray:none;stroke-opacity:1"
       d="m 113.18003,123.33701 -26.046844,3.30396"
       id="path60599" />
    <path
       style="fill:#ffffff;stroke:#000000;stroke-width:0.577102;stroke-linecap:butt;stroke-linejoin:miter;stroke-miterlimit:4;stroke-dasharray:none;stroke-opacity:1"
       d="m 147.762,93.29049 8.83617,33.74103"
       id="path60937" />
    <path
       id="path60939"
       style="fill:none;stroke:#000000;stroke-width:0.5771"
       inkscape:transform-center-x="-5.0407273"
       d="m 130.42005,123.57548 h 17.46158 17.4616 l -8.73079,-15.12218 -8.73081,-15.12217 -8.73079,15.12217 z"
       inkscape:transform-center-y="-3.4493204e-06" />
    <path
       style="fill:#ffffff;stroke:#000000;stroke-width:0.577102;stroke-linecap:butt;stroke-linejoin:miter;stroke-miterlimit:4;stroke-dasharray:none;stroke-opacity:1"
       d="m 165.68105,123.65942 -9.08288,3.3721"
       id="path60941" />
    <path
       style="fill:#ffffff;stroke:#000000;stroke-width:0.577102;stroke-linecap:butt;stroke-linejoin:miter;stroke-miterlimit:4;stroke-dasharray:none;stroke-opacity:1"
       d="m 130.55132,123.72756 26.04685,3.30396"
       id="path60943" />
    <path
       style="fill:#ffffff;stroke:#000000;stroke-width:0.577102;stroke-linecap:butt;stroke-linejoin:miter;stroke-miterlimit:4;stroke-dasharray:none;stroke-opacity:1"
       d="m 147.762,93.29049 8.83617,33.74103"
       id="path60945" />
    <path
       id="path60947"
       style="fill:none;stroke:#000000;stroke-width:0.5771"
       inkscape:transform-center-x="-5.0407273"
       d="m 130.42005,123.57548 h 17.46158 17.4616 l -8.73079,-15.12218 -8.73081,-15.12217 -8.73079,15.12217 z"
       inkscape:transform-center-y="-3.4493204e-06" />
    <path
       style="fill:#ffffff;stroke:#000000;stroke-width:0.577102;stroke-linecap:butt;stroke-linejoin:miter;stroke-miterlimit:4;stroke-dasharray:none;stroke-opacity:1"
       d="m 165.68105,123.65942 -9.08288,3.3721"
       id="path60949" />
    <path
       style="fill:#ffffff;stroke:#000000;stroke-width:0.577102;stroke-linecap:butt;stroke-linejoin:miter;stroke-miterlimit:4;stroke-dasharray:none;stroke-opacity:1"
       d="m 130.55132,123.72756 26.04685,3.30396"
       id="path60951" />
    <path
       id="path835-9-2-2-7"
       style="fill:#ffffff;stroke:#000000;stroke-width:0.5"
       inkscape:transform-center-y="-3.4517291"
       d="M 44.043486,51.362192 H 31.850364 19.657254 l 6.09656,-10.55954 6.09655,-10.559548 6.096565,10.559548 z" />
    <path
       id="path835-9-2-75-84"
       style="fill:#ffffff;stroke:#000000;stroke-width:0.5"
       inkscape:transform-center-y="-3.4517291"
       d="M 63.841746,66.807742 H 51.648636 39.455519 l 6.096557,-10.55955 6.09655,-10.55955 6.09656,10.55955 z" />
    <path
       id="path1340-4"
       d="m 31.850364,30.243104 19.798252,15.445538 v 0"
       style="fill:none;stroke:#000000;stroke-width:0.5;stroke-linecap:butt;stroke-linejoin:miter;stroke-dasharray:none;stroke-opacity:1" />
    <path
       id="path1342-5"
       d="m 19.657244,51.362202 19.798265,15.44553"
       style="fill:none;stroke:#000000;stroke-width:0.5;stroke-linecap:butt;stroke-linejoin:miter;stroke-dasharray:none;stroke-opacity:1" />
    <path
       id="path1344-5"
       d="m 44.043476,51.362202 19.79827,15.44553"
       style="fill:none;stroke:#000000;stroke-width:0.5;stroke-linecap:butt;stroke-linejoin:miter;stroke-dasharray:none;stroke-opacity:1" />
    <circle
       r="4.8426075"
       cy="228.48256"
       cx="78.663376"
       id="path837-3-4-4-2-4-6-1-1-9"
       style="fill:#ffffff;stroke:#000000;stroke-width:0.433569;stroke-miterlimit:4;stroke-dasharray:none" />
    <circle
       r="4.8426075"
       cy="229.19724"
       cx="111.27019"
       id="circle74161"
       style="fill:#ffffff;stroke:#000000;stroke-width:0.433569;stroke-miterlimit:4;stroke-dasharray:none" />
    <path
       id="path835-9-2-75-8"
       style="fill:none;stroke:#000000;stroke-width:0.5"
       inkscape:transform-center-y="-3.4517291"
       d="m 87.423546,68.877776 h 12.951844 12.95186 l -6.47593,-9.23894 -6.47593,-9.23893 -6.475929,9.23893 z" />
    <path
       id="path1280-5"
       d="M 100.37539,25.651727 V 50.560816"
       style="fill:none;stroke:#000000;stroke-width:0.5;stroke-linecap:butt;stroke-linejoin:miter;stroke-miterlimit:4;stroke-dasharray:none;stroke-opacity:1" />
    <path
       id="path1286-4"
       d="m 87.423536,43.968666 v 24.9091"
       style="fill:none;stroke:#000000;stroke-width:0.5;stroke-linecap:butt;stroke-linejoin:miter;stroke-miterlimit:4;stroke-dasharray:none;stroke-opacity:1" />
    <path
       id="path1288-5"
       d="m 113.32725,43.859066 v 25.0187"
       style="fill:none;stroke:#000000;stroke-width:0.5;stroke-linecap:butt;stroke-linejoin:miter;stroke-miterlimit:4;stroke-dasharray:none;stroke-opacity:1" />
    <path
       id="path835-9-2-2-1"
       style="fill:none;stroke:#000000;stroke-width:0.5"
       inkscape:transform-center-y="-3.4517291"
       d="m 87.423546,44.078676 h 12.951844 12.95186 l -6.47593,-9.23893 -6.47593,-9.238929 -6.475929,9.238929 z" />
    <text
       xml:space="preserve"
       style="font-size:4.67523px;line-height:1.25;font-family:sans-serif;letter-spacing:0px;stroke-width:0.292202"
       x="281.93509"
       y="40.174816"
       id="text5"
       transform="scale(1.1279411,0.88657112)"><tspan
         sodipodi:role="line"
         style="stroke-width:0.292202"
         x="281.93509"
         y="40.174816"
         id="tspan13">RSKT</tspan><tspan
         sodipodi:role="line"
         style="stroke-width:0.292202"
         x="281.93509"
         y="46.018852"
         id="tspan14">XRKT</tspan><tspan
         sodipodi:role="line"
         style="stroke-width:0.292202"
         x="281.93509"
         y="51.862892"
         id="tspan16">CHAI^AN.KULR</tspan><tspan
         sodipodi:role="line"
         style="stroke-width:0.292202"
         x="281.93509"
         y="57.706928"
         id="tspan17">KAIBI7</tspan></text>
    <text
       xml:space="preserve"
       style="font-size:3.70697px;line-height:1.25;font-family:sans-serif;letter-spacing:0px;fill:#ff0000;stroke-width:0.231685"
       x="174.18794"
       y="16.876034"
       id="text18"
       transform="scale(1.1419933,0.87566189)"><tspan
         sodipodi:role="line"
         style="fill:#ff0000;stroke-width:0.231685"
         x="174.18794"
         y="16.876034"
         id="tspan26" /></text>
    <text
       xml:space="preserve"
       style="font-size:5.41489px;line-height:1.25;font-family:sans-serif;word-spacing:0px;stroke-width:0.253823"
       x="139.28392"
       y="9.6144609"
       id="text6"><tspan
         sodipodi:role="line"
         style="stroke-width:0.253823"
         x="139.28392"
         y="9.6144609"
         id="tspan7" /></text>
    <path
       d="m 21.888922,16.632553 h -3.379585 v 5.624845 h -1.257815 v -5.624845 h -3.379585 v -0.753978 h 8.016985 z m 8.067805,3.80416 q 0,0.372705 -0.260456,0.736842 -0.254104,0.364137 -0.717845,0.616891 -0.508208,0.274174 -1.187936,0.428397 -0.673376,0.154222 -1.626266,0.154222 -1.02277,0 -1.842255,-0.128518 -0.813133,-0.128519 -1.65803,-0.381274 V 20.80085 h 0.08894 q 0.717844,0.402693 1.658029,0.621175 0.940186,0.218482 1.766024,0.218482 1.168879,0 1.816844,-0.295593 0.654318,-0.295594 0.654318,-0.78825 0,-0.424113 -0.311277,-0.625458 -0.304925,-0.201347 -0.933833,-0.31273 -0.476445,-0.08568 -1.035474,-0.141371 -0.552677,-0.05569 -1.175232,-0.141371 -1.257815,-0.179926 -1.867665,-0.612607 -0.603497,-0.436964 -0.603497,-1.135251 0,-0.801101 1.003711,-1.310893 1.003712,-0.514076 2.547393,-0.514076 0.99736,0 1.82955,0.128519 0.832191,0.128519 1.473804,0.317014 v 1.002447 h -0.08894 q -0.53997,-0.308445 -1.422983,-0.509791 -0.876659,-0.20563 -1.797786,-0.20563 -1.010064,0 -1.626266,0.282741 -0.60985,0.282742 -0.60985,0.728274 0,0.398409 0.304925,0.625459 0.304925,0.22705 1.073589,0.347001 0.406567,0.05998 1.156174,0.145655 0.749607,0.08568 1.270521,0.175643 1.054532,0.188494 1.58815,0.569767 0.533619,0.381273 0.533619,1.066707 z m 5.355244,1.820685 h -3.73533 v -0.651163 h 1.238757 v -5.076498 h -1.238757 v -0.651162 h 3.73533 v 0.651162 h -1.238758 v 5.076498 h 1.238758 z"
       id="text22"
       style="font-size:10.9312px;line-height:1.25;letter-spacing:0px;stroke:#000000;stroke-width:0.311305"
       aria-label="TSI" />
    <path
       d="m 21.54055,78.775295 h -3.029433 v 5.503029 H 17.38362 v -5.503029 h -3.029434 v -0.737648 h 7.186364 z m 7.334419,5.503029 h -6.616922 v -0.771178 l 5.199011,-4.731851 h -5.0054 v -0.737648 h 6.298033 v 0.750222 l -5.250259,4.752806 h 5.375537 z m 8.60997,0 h -1.463467 l -3.354016,-2.778757 -0.842776,0.662207 v 2.11655 h -1.127495 v -6.240677 h 1.127495 v 3.256552 l 4.11707,-3.256552 h 1.366662 l -3.786793,2.933831 z"
       id="text7"
       style="font-size:10.0452px;line-height:1.25;letter-spacing:0px;stroke:#000000;stroke-width:0.291529"
       aria-label="TZK" />
    <path
       d="m -19.844057,91.236273 h -2.609398 v 6.440111 h -0.971167 v -6.440111 h -2.609397 v -0.86326 h 6.189962 z m 6.852121,6.440111 h -1.260554 l -2.888977,-3.251937 -0.725922,0.774971 v 2.476966 h -0.971167 v -7.303371 h 0.971167 v 3.811094 l 3.54623,-3.811094 h 1.177172 l -3.261747,3.433418 z m 6.3959685,-2.084575 q 0,0.426725 -0.2011002,0.84364 -0.1961953,0.416915 -0.5542518,0.706303 -0.3923906,0.313912 -0.9172131,0.490488 -0.5199176,0.176576 -1.25565,0.176576 -0.7896864,0 -1.4224164,-0.147147 -0.627825,-0.147146 -1.280174,-0.436534 v -1.216411 h 0.06867 q 0.554252,0.461059 1.280175,0.711208 0.725922,0.250149 1.3635571,0.250149 0.9024985,0 1.4027966,-0.338437 0.5052029,-0.338437 0.5052029,-0.902499 0,-0.485583 -0.2403393,-0.716112 -0.2354343,-0.23053 -0.7210178,-0.358057 -0.3678662,-0.0981 -0.7994959,-0.161861 -0.4267248,-0.06376 -0.9074036,-0.161861 -0.971167,-0.206005 -1.442035,-0.701398 -0.465964,-0.500299 -0.465964,-1.299794 0,-0.917214 0.774971,-1.500895 0.774972,-0.588586 1.9668584,-0.588586 0.7700666,0 1.4126063,0.147147 0.6425396,0.147146 1.1379328,0.362961 v 1.147743 h -0.068668 q -0.4169151,-0.353152 -1.0986938,-0.583681 -0.6768739,-0.235435 -1.3880819,-0.235435 -0.7798765,0 -1.2556505,0.323723 -0.470868,0.323722 -0.470868,0.83383 0,0.456154 0.235434,0.716113 0.235434,0.259958 0.828925,0.397295 0.3139128,0.06867 0.892689,0.166766 0.5787762,0.0981 0.9809766,0.2011 0.8142106,0.215815 1.2262207,0.65235 0.4120102,0.436534 0.4120102,1.221316 z"
       id="text1"
       style="font-size:10.0452px;line-height:1.25;letter-spacing:0px;stroke:#000000;stroke-width:0.292696"
       transform="scale(1.1656184,0.85791371)"
       aria-label="TKS" />
  </g>
</svg>
