<?xml version="1.0" encoding="UTF-8" standalone="no"?>
<!-- Created with Inkscape (http://www.inkscape.org/) -->

<svg
   width="297mm"
   height="210mm"
   viewBox="0 0 297 210"
   version="1.1"
   id="svg1"
   inkscape:version="1.3 (0e150ed6c4, 2023-07-21)"
   sodipodi:docname="Q'^.svg"
   xmlns:inkscape="http://www.inkscape.org/namespaces/inkscape"
   xmlns:sodipodi="http://sodipodi.sourceforge.net/DTD/sodipodi-0.dtd"
   xmlns="http://www.w3.org/2000/svg"
   xmlns:svg="http://www.w3.org/2000/svg">
  <sodipodi:namedview
     id="namedview1"
     pagecolor="#ffffff"
     bordercolor="#000000"
     borderopacity="0.25"
     inkscape:showpageshadow="2"
     inkscape:pageopacity="0.0"
     inkscape:pagecheckerboard="0"
     inkscape:deskcolor="#d1d1d1"
     inkscape:document-units="mm"
     inkscape:zoom="1.0200267"
     inkscape:cx="561.25984"
     inkscape:cy="396.55826"
     inkscape:window-width="1849"
     inkscape:window-height="1055"
     inkscape:window-x="64"
     inkscape:window-y="-7"
     inkscape:window-maximized="1"
     inkscape:current-layer="layer1" />
  <defs
     id="defs1" />
  <g
     inkscape:label="图层 1"
     inkscape:groupmode="layer"
     id="layer1">
    <path
       id="path30-1"
       style="fill:none;fill-opacity:1;stroke:#000000;stroke-width:0.673964;stroke-miterlimit:6.66667;stroke-dasharray:3.36983, 2.69586;stroke-dashoffset:0"
       d="M 30.463522,153.21795 12.973682,142.89046 V 13.263622 H 234.82731 l 15.16298,8.953504 V 153.21795 Z" />
    <path
       style="fill:none;stroke:#000000;stroke-width:0.314384;stroke-linecap:butt;stroke-linejoin:miter;stroke-miterlimit:5.5;stroke-dasharray:none;stroke-opacity:1"
       d="m 47.401576,36.921024 -2.742436,4.565514 -4.984476,-1.301216 -0.326431,-5.381096 4.778327,-2.01866 z"
       id="path16" />
    <path
       d="m 91.914999,64.843432 0.0249,0.117191 -4e-5,1.1e-5 -5.32619,3.075073 -4.7e-5,4.7e-5 -0.07935,-0.07145 -0.322746,3.159334 c 0.02452,0.0083 0.04999,0.01521 0.07569,0.01792 0.06437,0.0071 0.130749,-0.0059 0.189568,-0.0402 l 8.18618,-4.726292 c 0.0588,-0.03395 0.1034,-0.08489 0.12968,-0.144024 0.008,-0.01945 0.0151,-0.03973 0.0197,-0.06072 z"
       fill="#43cb8e"
       id="path1"
       style="fill:#f2f2f2;stroke:#000000;stroke-width:0.309403;stroke-dasharray:none;stroke-opacity:1" />
    <path
       d="m 92.246366,55.019388 c -0.0143,-0.02087 -0.0309,-0.04008 -0.0495,-0.05683 -0.0481,-0.04327 -0.10952,-0.0718 -0.177047,-0.07887 l -9.400853,-0.988043 c -0.06755,-0.0083 -0.133554,0.0083 -0.189568,0.0402 -0.02134,0.01226 -0.04115,0.027 -0.05907,0.04409 l 1.583629,2.742907 0.03678,-0.08265 6.116492,0.642921 2.3e-5,-1.2e-5 0.0059,0.02653 z"
       fill="#ffaa5b"
       id="path3"
       style="fill:#ffffff;stroke:#000000;stroke-width:0.309403;stroke-dasharray:none;stroke-opacity:1" />
    <path
       d="m 92.935403,55.331806 -2.089589,2.32069 h 3.5e-5 l 1.278657,6.015741 -2e-5,1.2e-5 2.852838,1.270162 c 0.0263,-0.05918 0.0344,-0.126281 0.0203,-0.19274 l -1.965331,-9.246038 c -0.0142,-0.06638 -0.0488,-0.124547 -0.0969,-0.167827 z"
       fill="#fee55a"
       id="path5"
       style="fill:#f9f9f9;stroke:#000000;stroke-width:0.309403;stroke-dasharray:none;stroke-opacity:1" />
    <path
       d="m 84.952004,68.22037 -4.570431,-4.115262 -2.3e-5,-2.3e-5 0.03537,-0.07958 -3.095704,0.654051 c -7.43e-4,0.02523 5.77e-4,0.05022 0.0059,0.07463 0.01344,0.06331 0.04645,0.12239 0.09691,0.16784 l 7.024676,6.325011 c 0.05046,0.04539 0.11271,0.07203 0.177047,0.07887 l 0.326424,-3.105702 z"
       fill="#60b8fe"
       id="path6"
       style="fill:#ececec;stroke:#000000;stroke-width:0.309403;stroke-dasharray:none;stroke-dashoffset:0;stroke-opacity:1" />
    <path
       d="m 80.012317,62.628107 2.501487,-5.618532 -1.561369,-2.704366 c -0.056,0.03231 -0.102099,0.08194 -0.129676,0.144025 l -3.844721,8.635397 c -0.02759,0.06201 -0.03372,0.129475 -0.02028,0.192739 z"
       fill="#ff656f"
       id="path12-1"
       style="fill:#ececec;stroke:#000000;stroke-width:0.309403;stroke-dasharray:none;stroke-opacity:1" />
    <g
       id="g2"
       transform="matrix(1.4142135e-8,-0.94188008,0.94188008,1.4142135e-8,13.214724,101.65546)"
       style="stroke-width:0.34777;stroke-dasharray:none">
      <path
         id="polygon1"
         style="fill:none;stroke:#000000;stroke-width:1.72547;stroke-linecap:round;stroke-linejoin:round;stroke-dasharray:none"
         transform="matrix(0.20155092,0,0,0.20155092,44.972247,40.709127)"
         d="M 31.784,99.183 34.952,109 h 47.842 l 13.574,-42.056 -8.295,-6.068 -9.195,28.49 -3.168,9.817 z" />
      <path
         id="polygon2"
         style="fill:none;stroke:#000000;stroke-width:1.72547;stroke-linecap:round;stroke-linejoin:round;stroke-dasharray:none"
         transform="matrix(0.20155092,0,0,0.20155092,44.972247,40.709127)"
         d="M 96.368,66.944 82.794,109 H 93.048 L 107.832,63.194 72.295,37.201 64,43.269 88.073,60.876 Z" />
      <path
         id="polygon3"
         style="fill:none;stroke:#000000;stroke-width:1.72547;stroke-linecap:round;stroke-linejoin:round;stroke-dasharray:none"
         transform="matrix(0.20155092,0,0,0.20155092,44.972247,40.709127)"
         d="M 64,43.269 72.295,37.201 107.832,63.194 111,53.377 72.295,25.067 36.758,51.059 39.927,60.876 Z" />
      <path
         id="polygon4"
         style="fill:none;stroke:#000000;stroke-width:1.72547;stroke-linecap:round;stroke-linejoin:round;stroke-dasharray:none"
         transform="matrix(0.20155092,0,0,0.20155092,44.972247,40.709127)"
         d="M 49.122,89.366 39.927,60.876 36.758,51.059 72.295,25.067 64,19 25.295,47.31 38.869,89.366 Z" />
      <path
         id="polygon5"
         style="fill:none;stroke:#000000;stroke-width:1.72547;stroke-linecap:round;stroke-linejoin:round;stroke-dasharray:none"
         transform="matrix(0.20155092,0,0,0.20155092,44.972247,40.709127)"
         d="M 17,53.377 31.784,99.183 H 75.71 l 3.168,-9.817 H 49.122 38.869 L 25.295,47.31 Z" />
    </g>
    <path
       style="fill:none;stroke:#000000;stroke-width:0.290675;stroke-linecap:butt;stroke-linejoin:miter;stroke-miterlimit:5.5;stroke-dasharray:none;stroke-opacity:1"
       d="m 49.542988,36.60178 -4.070119,6.775805 -7.397603,-1.931179 -0.484449,-7.986228 7.091631,-2.995928 z"
       id="path2" />
    <path
       style="fill:none;stroke:#000000;stroke-width:0.36845;stroke-linecap:butt;stroke-linejoin:miter;stroke-miterlimit:5.5;stroke-dasharray:none;stroke-opacity:1"
       d="M 52.579085,36.143699 46.627133,46.052324 35.809208,43.228268 35.100774,31.54956 45.471289,27.168453 Z"
       id="path29" />
    <path
       d="m 36.332318,130.26078 h -1.00676 l -0.69663,-1.98258 h -3.07278 l -0.69663,1.98258 h -0.95906 l 2.5861,-7.11341 h 1.25966 z m -1.99445,-2.79472 -1.24533,-3.49221 -1.25011,3.49221 z m 7.6104,-3.47788 h -3.59287 v 2.00647 h 3.0871 v 0.8408 h -3.0871 v 3.42533 h -0.94474 v -7.11341 h 4.53761 z"
       id="text121"
       style="font-size:9.77788px;line-height:1.25;letter-spacing:0px;stroke:#000000;stroke-width:0.417"
       aria-label="AF" />
    <path
       style="fill:#ffffff;stroke:#000000;stroke-width:1.79014;stroke-linecap:butt;stroke-linejoin:miter;stroke-miterlimit:5.5;stroke-dasharray:none;stroke-opacity:1"
       d="m 151.80666,122.3743 -37.11803,-0.40643 -9.73679,-34.559688 31.21024,-20.922303 28.97511,21.623108 z"
       id="path102" />
    <path
       style="fill:#000000;fill-opacity:1;stroke:#000000;stroke-width:1.64967;stroke-linecap:butt;stroke-linejoin:miter;stroke-dasharray:4.94902, 1.64967;stroke-dashoffset:0;stroke-opacity:1"
       d="m 93.54749,87.524271 11.89765,42.833319"
       id="path103" />
    <path
       style="fill:#000000;fill-opacity:1;stroke:#000000;stroke-width:2.11859;stroke-linecap:butt;stroke-linejoin:miter;stroke-dasharray:none;stroke-dashoffset:0;stroke-opacity:1"
       d="m 111.88163,132.11638 44.45498,0.002"
       id="path104" />
    <path
       style="fill:#000000;fill-opacity:1;stroke:#000000;stroke-width:1.64967;stroke-linecap:butt;stroke-linejoin:miter;stroke-dasharray:4.94902, 1.64967;stroke-dashoffset:0;stroke-opacity:1"
       d="M 94.055117,79.986553 130.83283,55.013523"
       id="path105" />
    <path
       style="fill:#000000;fill-opacity:1;stroke:#000000;stroke-width:1.64967;stroke-linecap:butt;stroke-linejoin:miter;stroke-dasharray:4.94902, 1.64967;stroke-dashoffset:0;stroke-opacity:1"
       d="m 140.89078,55.328535 35.14416,27.223781"
       id="path106" />
    <path
       style="fill:#000000;fill-opacity:1;stroke:#000000;stroke-width:1.64967;stroke-linecap:butt;stroke-linejoin:miter;stroke-dasharray:4.94902, 1.64967;stroke-dashoffset:0;stroke-opacity:1"
       d="M 177.40868,87.904392 162.09682,129.63921"
       id="path107" />
    <path
       id="path122"
       style="fill:#ececec;stroke:#000000;stroke-width:0.865551;stroke-linecap:round;stroke-linejoin:round;stroke-dasharray:none;stroke-dashoffset:0;stroke-opacity:1;paint-order:markers fill stroke"
       inkscape:transform-center-x="0.09022962"
       inkscape:transform-center-y="-1.5814953"
       d="m 117.0517,119.69283 8.33935,-4.78559 8.33933,-4.7856 8.06853,4.82683 8.06849,4.82676 -16.4078,-0.041 z" />
    <path
       d="m 126.71773,96.159045 q 0,-3.64937 1.39604,-5.518553 1.39604,-1.878082 4.04438,-1.878082 5.05037,0 5.05037,7.067298 0,3.489138 -1.42684,5.340522 -1.41655,1.84249 -3.98281,1.84249 -2.42252,0 -3.75696,-1.75347 -1.32418,-1.753487 -1.32418,-5.100205 z m 2.05298,-0.0801 q 0,5.491845 3.21293,5.491845 3.16162,0 3.16162,-5.580862 0,-5.776665 -3.10002,-5.776665 -3.27453,0 -3.27453,5.865682 z m 10.34708,2.857184 q 0,-1.192714 0.82121,-2.198509 0.82118,-1.005815 2.11457,-1.433048 -1.03677,-0.507359 -1.64239,-1.299524 -0.60563,-0.792175 -0.60563,-1.717876 0,-0.979086 0.57483,-1.78908 0.5851,-0.809979 1.61161,-1.272817 1.03674,-0.462851 2.27881,-0.462851 1.25234,0 2.28908,0.462851 1.03677,0.453948 1.61163,1.263916 0.57481,0.809981 0.57481,1.797981 0,0.907886 -0.59535,1.708964 -0.58512,0.792188 -1.63214,1.308436 1.29339,0.436146 2.10432,1.441937 0.81093,1.005796 0.81093,2.18962 0,1.174901 -0.64671,2.109501 -0.64668,0.92569 -1.83741,1.44196 -1.19073,0.51624 -2.67916,0.51624 -1.47816,0 -2.65862,-0.51624 -1.18046,-0.51627 -1.83743,-1.45086 -0.65696,-0.93459 -0.65696,-2.100601 z m 1.97086,-0.0801 q 0,1.228301 0.87253,1.967081 0.87253,0.73878 2.31989,0.73878 1.41656,0 2.30962,-0.74767 0.9033,-0.75658 0.9033,-1.958191 0,-1.139314 -0.91357,-1.913691 -0.90333,-0.783276 -2.29935,-0.783276 -1.38577,0 -2.28908,0.765476 -0.90334,0.756567 -0.90334,1.931491 z m 0.57486,-6.426428 q 0,0.925677 0.75959,1.593255 0.75962,0.658663 1.85797,0.658663 1.07783,0 1.85796,-0.667565 0.7904,-0.667565 0.7904,-1.584353 0,-0.934602 -0.7596,-1.584365 -0.74936,-0.649761 -1.88876,-0.649761 -1.12915,0 -1.87849,0.64086 -0.73907,0.631971 -0.73907,1.593266 z"
       id="text123"
       style="font-size:16.4716px;line-height:1.25;letter-spacing:0px;stroke:#000000;stroke-width:0.594236"
       aria-label="08" />
    <text
       xml:space="preserve"
       style="font-size:4.99101px;line-height:1.25;font-family:sans-serif;letter-spacing:0px;fill:#000000;stroke:#000000;stroke-width:0.311938"
       x="41.741081"
       y="39.34087"
       id="text152"><tspan
         sodipodi:role="line"
         id="tspan152"
         style="fill:#000000;stroke:#000000;stroke-width:0.311938"
         x="41.741081"
         y="39.34087">5</tspan></text>
    <text
       xml:space="preserve"
       style="font-size:4.99101px;line-height:1.25;font-family:sans-serif;letter-spacing:0px;fill:#000000;stroke:#000000;stroke-width:0.311938"
       x="63.171547"
       y="48.847317"
       id="text153"><tspan
         sodipodi:role="line"
         id="tspan153"
         style="fill:#000000;stroke:#000000;stroke-width:0.311938"
         x="63.171547"
         y="48.847317">8</tspan></text>
    <path
       d="m 85.312134,60.231704 v 2.493067 h 0.565387 v 0.394797 h -0.565387 v 0.887073 h -0.463033 v -0.887073 h -1.761962 v -0.372863 q 0.470344,-0.528832 0.945561,-1.218508 0.475219,-0.689676 0.784719,-1.296493 z m -1.688852,2.493067 h 1.225819 v -1.798517 q -0.25345,0.455722 -0.543454,0.884636 -0.290005,0.426478 -0.682365,0.913881 z m 4.917897,0.116978 q 0,0.553202 -0.367989,0.891948 -0.365553,0.338745 -0.984555,0.338745 -0.531269,0 -0.79203,-0.158406 v -0.487403 q 0.382612,0.248576 0.779846,0.248576 0.394796,0 0.63606,-0.216895 0.243702,-0.219331 0.243702,-0.580009 0,-0.360679 -0.25345,-0.560514 -0.251011,-0.202273 -0.711608,-0.202273 -0.355804,0 -0.640935,0.03168 l 0.13891,-1.915494 h 1.764399 v 0.419167 h -1.362291 l -0.07799,1.069849 0.34362,-0.01462 q 0.599505,0 0.940687,0.299753 0.343619,0.297316 0.343619,0.835896 z"
       id="text155"
       style="font-size:4.23333px;line-height:1.25;letter-spacing:0px;stroke:#000000;stroke-width:0.311938"
       aria-label="45" />
    <text
       xml:space="preserve"
       style="font-size:12.2285px;line-height:1.25;font-family:sans-serif;letter-spacing:0px;fill:#000000;stroke:#000000;stroke-width:0.546702;stroke-dasharray:none"
       x="140.24446"
       y="41.704258"
       id="text151-5"
       transform="scale(1.2025833,0.83154322)"><tspan
         sodipodi:role="line"
         id="tspan151-7"
         style="fill:#000000;stroke:#000000;stroke-width:0.546702;stroke-dasharray:none"
         x="140.24446"
         y="41.704258">@^+*^Q</tspan></text>
    <path
       id="path1-4"
       style="fill:none;stroke:#000000;stroke-width:0.582;stroke-dasharray:none;stroke-dashoffset:0"
       inkscape:transform-center-x="3.8118782"
       inkscape:transform-center-y="-0.0791484"
       d="m 52.295578,134.3759 -13.36305,7.89796 -13.52137,-7.62375 -0.15835,-15.5217 13.36305,-7.89797 13.52137,7.62374 z" />
    <path
       d="m 48.783158,123.98818 h -2.5384 v 6.2726 h -0.94473 v -6.2726 h -2.5384 v -0.84081 h 6.02153 z"
       id="text1"
       style="font-size:9.77788px;line-height:1.25;letter-spacing:0px;stroke:#000000;stroke-width:0.417"
       aria-label="T" />
    <path
       d="M 121.42954,102.78129 V 90.987634 q -0.47218,0.40943 -1.60134,0.916788 -1.11887,0.507347 -2.07353,0.712073 v -1.708977 q 1.26262,-0.30262 2.69969,-0.961295 1.4371,-0.667564 2.20697,-1.255014 h 0.75963 v 14.090081 z"
       id="text2"
       style="font-size:16.4716px;line-height:1.25;letter-spacing:0px;stroke:#000000;stroke-width:0.594236"
       aria-label="1" />
    <path
       id="path1-2"
       style="fill:#00ff00;fill-opacity:1;stroke:#000000;stroke-width:0"
       d="m 157.95922,74.993806 -1.17884,1.645898 10.10149,7.234984 1.17884,-1.645898 z" />
    <g
       id="g1"
       transform="rotate(68.933476,134.35394,94.289147)"
       style="fill:#0000ff;stroke:#000000">
      <path
         id="path2-4"
         style="fill:#0000ff;fill-opacity:1;stroke:#000000;stroke-width:0"
         d="m 167.73872,101.9424 -1.89357,-0.71629 4.35341,-11.508648 1.89356,0.716285 z" />
    </g>
    <g
       id="g4"
       transform="matrix(-0.99486988,-0.10116283,-0.10116283,0.99486988,279.80121,18.077344)"
       style="fill:#ff0000;stroke:#000000">
      <path
         id="path4"
         style="fill:#ff0000;fill-opacity:1;stroke:#000000;stroke-width:0"
         d="m 167.73872,101.9424 -1.89357,-0.71629 4.35341,-11.508648 1.89356,0.716285 z" />
    </g>
  </g>
</svg>
