<?xml version="1.0" encoding="UTF-8" standalone="no"?>
<svg
   width="210mm"
   height="297mm"
   viewBox="0 0 210 297"
   version="1.1"
   id="svg8"
   inkscape:version="1.3 (0e150ed6c4, 2023-07-21)"
   sodipodi:docname="ats.svg"
   xmlns:inkscape="http://www.inkscape.org/namespaces/inkscape"
   xmlns:sodipodi="http://sodipodi.sourceforge.net/DTD/sodipodi-0.dtd"
   xmlns="http://www.w3.org/2000/svg"
   xmlns:svg="http://www.w3.org/2000/svg"
   xmlns:rdf="http://www.w3.org/1999/02/22-rdf-syntax-ns#"
   xmlns:cc="http://creativecommons.org/ns#"
   xmlns:dc="http://purl.org/dc/elements/1.1/">
  <defs
     id="defs2">
    <inkscape:path-effect
       effect="bspline"
       id="path-effect4"
       is_visible="true"
       lpeversion="1"
       weight="33.333333"
       steps="2"
       helper_size="0"
       apply_no_weight="true"
       apply_with_weight="true"
       only_selected="false" />
    <inkscape:path-effect
       effect="bspline"
       id="path-effect1080"
       is_visible="true"
       lpeversion="1"
       weight="33.333333"
       steps="2"
       helper_size="0"
       apply_no_weight="true"
       apply_with_weight="true"
       only_selected="false" />
    <inkscape:path-effect
       effect="bspline"
       id="path-effect1088"
       is_visible="true"
       lpeversion="1"
       weight="33.333333"
       steps="2"
       helper_size="0"
       apply_no_weight="true"
       apply_with_weight="true"
       only_selected="false" />
    <inkscape:path-effect
       effect="bspline"
       id="path-effect1092"
       is_visible="true"
       lpeversion="1"
       weight="33.333333"
       steps="2"
       helper_size="0"
       apply_no_weight="true"
       apply_with_weight="true"
       only_selected="false" />
  </defs>
  <sodipodi:namedview
     id="base"
     pagecolor="#ffffff"
     bordercolor="#666666"
     borderopacity="1.0"
     inkscape:pageopacity="0.0"
     inkscape:pageshadow="2"
     inkscape:zoom="1.5197952"
     inkscape:cx="186.53829"
     inkscape:cy="328.6627"
     inkscape:document-units="mm"
     inkscape:current-layer="layer1"
     inkscape:document-rotation="0"
     showgrid="false"
     inkscape:snap-global="false"
     inkscape:window-width="2160"
     inkscape:window-height="1334"
     inkscape:window-x="-11"
     inkscape:window-y="-11"
     inkscape:window-maximized="1"
     inkscape:pagecheckerboard="0"
     inkscape:showpageshadow="2"
     inkscape:deskcolor="#d1d1d1" />
  <metadata
     id="metadata5">
    <rdf:RDF>
      <cc:Work
         rdf:about="">
        <dc:format>image/svg+xml</dc:format>
        <dc:type
           rdf:resource="http://purl.org/dc/dcmitype/StillImage" />
      </cc:Work>
    </rdf:RDF>
  </metadata>
  <g
     inkscape:label="图层 1"
     inkscape:groupmode="layer"
     id="layer1">
    <path
       id="rect963"
       style="fill:#ffffff;stroke:#000000;stroke-width:0.154326;stroke-linecap:round;stroke-linejoin:round;paint-order:markers fill stroke"
       d="M 27.619825,23.694054 13.222629,38.09125 27.619825,52.488443 42.01702,38.09125 Z" />
    <path
       id="path965"
       style="fill:#ffffff;stroke:#000000;stroke-width:0.160197;stroke-linecap:round;stroke-linejoin:round;paint-order:markers fill stroke"
       inkscape:transform-center-x="0.14104329"
       inkscape:transform-center-y="-8.9727719"
       d="m 17.390641,34.474581 10.403932,-0.0073 10.403951,-0.0073 -5.195631,9.01373 -5.195639,9.013732 -5.208311,-9.006414 z" />
    <path
       id="ellipse981"
       style="fill:none;stroke:#000000;stroke-width:0.135641;stroke-linecap:round;stroke-linejoin:round;stroke-dasharray:0.542561, 0.542561;paint-order:markers fill stroke"
       d="M 37.52082,38.106733 A 9.9105223,10.343712 0 0 1 27.610302,48.450448 9.9105223,10.343712 0 0 1 17.699784,38.106733 9.9105223,10.343712 0 0 1 27.610302,27.763021 9.9105223,10.343712 0 0 1 37.52082,38.106733 Z" />
    <path
       id="ellipse890"
       style="fill:none;stroke:#000000;stroke-width:0.0786978;stroke-linecap:round;stroke-linejoin:round;stroke-dasharray:0.314791, 0.314791;paint-order:markers fill stroke"
       d="m 33.19792,40.879999 a 5.7500017,6.001335 0 0 1 -5.75,6.001331 5.7500017,6.001335 0 0 1 -5.75,-6.001331 5.7500017,6.001335 0 0 1 5.75,-6.001336 5.7500017,6.001335 0 0 1 5.75,6.001336 z" />
    <path
       id="path902-3"
       style="fill:#ff0000;stroke:#000000;stroke-width:0.0681483"
       d="m 27.877128,40.821446 a 0.26515769,0.26515769 0 0 1 -0.265157,0.265159 0.26515769,0.26515769 0 0 1 -0.265157,-0.265159 0.26515769,0.26515769 0 0 1 0.265157,-0.265158 0.26515769,0.26515769 0 0 1 0.265157,0.265158 z" />
    <path
       id="circle904-0"
       style="fill:#00ff00;stroke:#000000;stroke-width:0.0681483"
       d="m 27.88499,38.091237 a 0.26515769,0.26515769 0 0 1 -0.265157,0.265158 0.26515769,0.26515769 0 0 1 -0.265156,-0.265158 0.26515769,0.26515769 0 0 1 0.265156,-0.265157 0.26515769,0.26515769 0 0 1 0.265157,0.265157 z" />
    <path
       id="ellipse7925"
       style="fill:none;stroke:#000000;stroke-width:0.180297;stroke-linecap:round;stroke-linejoin:round;stroke-dasharray:0.54089, 0.54089;paint-order:markers fill stroke"
       d="M 79.940051,38.031255 A 12.382502,12.520074 0 0 1 67.557548,50.551328 12.382502,12.520074 0 0 1 55.175053,38.031255 12.382502,12.520074 0 0 1 67.557548,25.511182 12.382502,12.520074 0 0 1 79.940051,38.031255 Z" />
    <g
       id="g7931"
       transform="matrix(0.50236449,-0.01618576,0.01618576,0.50236449,30.412964,-41.559883)">
      <path
         id="path7927"
         style="fill:url(#meshgradient999);stroke:#000000;stroke-width:0.175313;stroke-linecap:round;stroke-linejoin:round;paint-order:markers fill stroke"
         inkscape:transform-center-x="0.94158354"
         inkscape:transform-center-y="1.1953705"
         transform="matrix(1.0105691,1.0061204,-1.0061204,1.0105691,-30.88411,-34.538982)"
         d="m 157.31638,53.876433 -11.93684,-0.452561 -11.93685,-0.452563 6.36035,-10.111329 6.36036,-10.111329 5.57649,10.563891 z" />
      <path
         id="ellipse7929"
         style="fill:none;stroke:#000000;stroke-width:0.140999;stroke-linecap:round;stroke-linejoin:round;paint-order:markers fill stroke"
         d="m 79.320374,159.12267 a 9.6836395,9.7912264 0 0 1 -9.68364,9.79122 9.6836395,9.7912264 0 0 1 -9.68364,-9.79122 9.6836395,9.7912264 0 0 1 9.68364,-9.79123 9.6836395,9.7912264 0 0 1 9.68364,9.79123 z" />
    </g>
    <path
       id="ellipse8486"
       style="fill:#ffaaaa;stroke:#000000;stroke-width:0.0730125;stroke-linecap:round;stroke-linejoin:round;paint-order:markers fill stroke"
       d="m 68.348397,37.271463 a 0.63377299,0.62680899 88.154617 0 1 -0.606075,0.653628 0.63377299,0.62680899 88.154617 0 1 -0.64689,-0.61326 0.63377299,0.62680899 88.154617 0 1 0.606075,-0.653629 0.63377299,0.62680899 88.154617 0 1 0.64689,0.613261 z" />
    <text
       xml:space="preserve"
       style="font-size:5.28649px;line-height:1.25;font-family:sans-serif;word-spacing:0px;stroke-width:0.247804"
       x="13.02847"
       y="19.861753"
       id="text9174"
       transform="scale(1.067711,0.93658302)"><tspan
         sodipodi:role="line"
         id="tspan9172"
         style="stroke-width:0.247804"
         x="13.02847"
         y="19.861753">ATS:VTS </tspan></text>
    <path
       id="rect1072"
       style="fill:none;stroke:#000000;stroke-width:0.210082;stroke-linecap:round;stroke-linejoin:round;paint-order:markers fill stroke"
       d="M 13.283743,110.76575 H 40.99208 V 83.040767 H 13.283743 Z" />
    <path
       id="path1074"
       style="fill:none;stroke:#000000;stroke-width:0.212573;stroke-linecap:round;stroke-linejoin:round;paint-order:markers fill stroke"
       inkscape:transform-center-x="0.086720565"
       inkscape:transform-center-y="-6.1572373"
       d="m 40.938852,110.76453 -13.800933,-0.096 -13.800945,-0.096 6.983567,-11.911129 6.983578,-11.911144 6.817367,12.007154 z" />
    <path
       style="fill:none;stroke:#ff5555;stroke-width:0.29;stroke-linecap:butt;stroke-linejoin:miter;stroke-miterlimit:4;stroke-dasharray:none;stroke-dashoffset:0;stroke-opacity:1"
       d="m 84.763217,108.61308 c 9.193209,0 18.386143,0 22.982453,0.006 4.59632,0.006 4.59632,0.018 4.59632,0.0295"
       id="path1078"
       inkscape:path-effect="#path-effect1080"
       inkscape:original-d="m 84.763217,108.61308 c 9.193209,2.9e-4 18.386143,2.9e-4 27.578773,0 2.9e-4,0.0122 2.9e-4,0.0241 0,0.0356"
       transform="translate(-71.377492,-21.901059)" />
    <path
       style="fill:none;stroke:#000080;stroke-width:0.271337;stroke-linecap:butt;stroke-linejoin:miter;stroke-miterlimit:4;stroke-dasharray:1.08535, 0.271337;stroke-dashoffset:0;stroke-opacity:1"
       d="m 98.681606,108.65129 c 0,8.06171 0,16.12319 -0.0061,20.15378 -0.0061,4.03059 -0.01801,4.03059 -0.02951,4.03059"
       id="path1086"
       inkscape:path-effect="#path-effect1088"
       inkscape:original-d="m 98.681606,108.65129 c -2.85e-4,8.06171 -2.85e-4,16.12319 0,24.18437 -0.01216,2.7e-4 -0.02409,2.7e-4 -0.03559,0"
       transform="translate(-71.377492,-21.901059)" />
    <path
       style="fill:none;stroke:#00ff00;stroke-width:0.348;stroke-linecap:butt;stroke-linejoin:miter;stroke-miterlimit:4;stroke-dasharray:none;stroke-dashoffset:0;stroke-opacity:1"
       d="m 98.717203,105.00547 c 0,1.21533 0,2.43061 -0.0061,3.03823 -0.0061,0.60762 -0.01801,0.60762 -0.02949,0.60762"
       id="path1090"
       inkscape:path-effect="#path-effect1092"
       inkscape:original-d="m 98.717203,105.00547 c -2.86e-4,1.21533 -2.86e-4,2.43061 0,3.64585 -0.01217,4e-5 -0.02409,4e-5 -0.03558,0"
       transform="translate(-71.377492,-21.901059)" />
    <circle
       r="0.49945158"
       cy="96.903267"
       cx="27.338371"
       id="path1150"
       style="fill:#00ff00;stroke:#000000;stroke-width:0.212814;stroke-linecap:round;stroke-linejoin:round;stroke-miterlimit:4;stroke-dasharray:1.27689, 0.212814;stroke-dashoffset:0;paint-order:markers fill stroke" />
    <path
       id="path1152"
       style="fill:none;stroke:#000000;stroke-width:0.00640866;stroke-linecap:round;stroke-linejoin:round;paint-order:markers fill stroke"
       inkscape:transform-center-x="0.0026138871"
       inkscape:transform-center-y="-0.18562992"
       d="m 14.066076,87.371117 -0.416071,-0.003 -0.416072,-0.003 0.210541,-0.3591 0.210541,-0.3591 0.205531,0.36199 z" />
    <text
       xml:space="preserve"
       style="font-size:3.10368px;line-height:1.25;font-family:sans-serif;stroke-width:0.0969896"
       x="29.607679"
       y="90.264915"
       id="text1003"><tspan
         sodipodi:role="line"
         id="tspan1001"
         x="29.607679"
         y="90.264915"
         style="stroke-width:0.0969896">lank:ai</tspan></text>
    <circle
       r="0.49945158"
       cy="98.757378"
       cx="27.338371"
       id="circle11895"
       style="fill:#ff0000;stroke:#000000;stroke-width:0.212814;stroke-linecap:round;stroke-linejoin:round;stroke-miterlimit:4;stroke-dasharray:1.27689, 0.212814;stroke-dashoffset:0;paint-order:markers fill stroke" />
    <path
       style="fill:#0000ff;stroke:#0000ff;stroke-width:0.289753;stroke-linecap:butt;stroke-linejoin:miter;stroke-miterlimit:4;stroke-dasharray:none;stroke-dashoffset:0;stroke-opacity:1"
       d="m 84.763217,108.61308 c 9.193209,0 18.386143,0 22.982453,0.006 4.59632,0.006 4.59632,0.018 4.59632,0.0295"
       id="path3"
       inkscape:path-effect="#path-effect4"
       inkscape:original-d="m 84.763217,108.61308 c 9.193209,2.9e-4 18.386143,2.9e-4 27.578773,0 2.9e-4,0.0122 2.9e-4,0.0241 0,0.0356"
       transform="translate(-71.377492,2.1760243)" />
    <text
       xml:space="preserve"
       style="font-size:3.29923px;line-height:1.25;font-family:sans-serif;stroke-width:0.103101"
       x="27.250299"
       y="115.06001"
       id="text4"><tspan
         sodipodi:role="line"
         id="tspan4"
         x="27.250299"
         y="115.06001"
         style="stroke-width:0.103101">lank_l</tspan><tspan
         sodipodi:role="line"
         x="27.250299"
         y="119.18405"
         style="stroke-width:0.103101"
         id="tspan5" /></text>
    <text
       xml:space="preserve"
       style="font-size:5.06383px;line-height:1.25;font-family:sans-serif;letter-spacing:0px;stroke-width:0.316489"
       x="54.295139"
       y="-15.936683"
       id="text1"
       transform="scale(1.067711,0.93658302)"><tspan
         sodipodi:role="line"
         id="tspan1"
         style="stroke-width:0.316489"
         x="54.295139"
         y="-15.936683">SMT</tspan></text>
    <circle
       r="0.49945158"
       cy="100.87405"
       cx="27.338371"
       id="circle2"
       style="fill:#0000ff;stroke:#000000;stroke-width:0.212814;stroke-linecap:round;stroke-linejoin:round;stroke-miterlimit:4;stroke-dasharray:1.27689, 0.212814;stroke-dashoffset:0;paint-order:markers fill stroke" />
    <text
       xml:space="preserve"
       style="font-size:5.17041px;line-height:1.25;font-family:sans-serif;letter-spacing:0px;stroke-width:0.32315"
       x="12.579291"
       y="80.309326"
       id="text2"
       transform="scale(1.0457023,0.95629507)"><tspan
         sodipodi:role="line"
         id="tspan2"
         style="stroke-width:0.32315"
         x="12.579291"
         y="80.309326">ATF:TNS</tspan></text>
    <text
       xml:space="preserve"
       style="font-size:4.17767px;line-height:1.25;font-family:sans-serif;letter-spacing:0px;fill:#ff0000;stroke-width:0.261105"
       x="43.143471"
       y="93.849274"
       id="text3"
       transform="scale(1.0383386,0.96307697)"><tspan
         sodipodi:role="line"
         id="tspan3"
         style="fill:#ff0000;stroke-width:0.261105"
         x="43.143471"
         y="93.849274">ATF.RTF.TSK</tspan><tspan
         sodipodi:role="line"
         style="fill:#ff0000;stroke-width:0.261105"
         x="43.143471"
         y="99.071365"
         id="tspan9" /></text>
    <text
       xml:space="preserve"
       style="font-size:4.17767px;line-height:1.25;font-family:sans-serif;letter-spacing:0px;fill:#00ff00;stroke-width:0.261105"
       x="43.298161"
       y="98.797974"
       id="text6"
       transform="scale(1.0383386,0.96307697)"><tspan
         sodipodi:role="line"
         id="tspan6"
         style="fill:#00ff00;stroke-width:0.261105"
         x="43.298161"
         y="98.797974">F.</tspan></text>
    <text
       xml:space="preserve"
       style="font-size:4.17767px;line-height:1.25;font-family:sans-serif;letter-spacing:0px;fill:#0000ff;stroke-width:0.261105"
       x="43.196507"
       y="104.0157"
       id="text7"
       transform="scale(1.0383386,0.96307697)"><tspan
         sodipodi:role="line"
         id="tspan7"
         style="fill:#0000ff;stroke-width:0.261105"
         x="43.196507"
         y="104.0157">T.</tspan></text>
    <text
       xml:space="preserve"
       style="font-size:4.31693px;line-height:1.25;font-family:sans-serif;letter-spacing:0px;stroke-width:0.269807"
       x="42.774933"
       y="109.2051"
       id="text8"
       transform="scale(1.0383386,0.96307697)"><tspan
         sodipodi:role="line"
         id="tspan8"
         style="stroke-width:0.269807"
         x="42.774933"
         y="109.2051">RSH:MTH</tspan></text>
    <text
       xml:space="preserve"
       style="font-size:5.33325px;line-height:1.25;font-family:sans-serif;letter-spacing:0px;stroke-width:0.333328"
       x="13.19973"
       y="67.171188"
       id="text11"
       transform="scale(1.0457023,0.95629511)"><tspan
         sodipodi:role="line"
         id="tspan11"
         style="stroke-width:0.333328"
         x="13.19973"
         y="67.171188">MKS^A.VlS</tspan></text>
    <text
       xml:space="preserve"
       style="font-size:5.20132px;line-height:1.25;font-family:sans-serif;letter-spacing:0px;stroke-width:0.325081"
       x="52.615849"
       y="19.35997"
       id="text10"
       transform="scale(1.0383386,0.96307697)"><tspan
         sodipodi:role="line"
         id="tspan10"
         style="stroke-width:0.325081"
         x="52.615849"
         y="19.35997">SRT-MTS</tspan></text>
  </g>
</svg>
