<?xml version="1.0" encoding="UTF-8" standalone="no"?>
<svg
   width="297mm"
   height="210mm"
   viewBox="0 0 297 210"
   version="1.1"
   id="svg8"
   inkscape:version="1.3 (0e150ed6c4, 2023-07-21)"
   sodipodi:docname="ITF.svg"
   xmlns:inkscape="http://www.inkscape.org/namespaces/inkscape"
   xmlns:sodipodi="http://sodipodi.sourceforge.net/DTD/sodipodi-0.dtd"
   xmlns="http://www.w3.org/2000/svg"
   xmlns:svg="http://www.w3.org/2000/svg"
   xmlns:rdf="http://www.w3.org/1999/02/22-rdf-syntax-ns#"
   xmlns:cc="http://creativecommons.org/ns#"
   xmlns:dc="http://purl.org/dc/elements/1.1/">
  <defs
     id="defs2">
    <inkscape:path-effect
       effect="bspline"
       id="path-effect4"
       is_visible="true"
       lpeversion="1"
       weight="33.333333"
       steps="2"
       helper_size="0"
       apply_no_weight="true"
       apply_with_weight="true"
       only_selected="false"
       uniform="false" />
    <inkscape:path-effect
       effect="bspline"
       id="path-effect1080"
       is_visible="true"
       lpeversion="1"
       weight="33.333333"
       steps="2"
       helper_size="0"
       apply_no_weight="true"
       apply_with_weight="true"
       only_selected="false"
       uniform="false" />
    <inkscape:path-effect
       effect="bspline"
       id="path-effect1088"
       is_visible="true"
       lpeversion="1"
       weight="33.333333"
       steps="2"
       helper_size="0"
       apply_no_weight="true"
       apply_with_weight="true"
       only_selected="false"
       uniform="false" />
    <inkscape:path-effect
       effect="bspline"
       id="path-effect1092"
       is_visible="true"
       lpeversion="1"
       weight="33.333333"
       steps="2"
       helper_size="0"
       apply_no_weight="true"
       apply_with_weight="true"
       only_selected="false"
       uniform="false" />
  </defs>
  <sodipodi:namedview
     id="base"
     pagecolor="#ffffff"
     bordercolor="#666666"
     borderopacity="1.0"
     inkscape:pageopacity="0.0"
     inkscape:pageshadow="2"
     inkscape:zoom="1.4556538"
     inkscape:cx="498.058"
     inkscape:cy="227.04575"
     inkscape:document-units="mm"
     inkscape:current-layer="layer1"
     inkscape:document-rotation="0"
     showgrid="false"
     inkscape:snap-global="false"
     inkscape:window-width="1850"
     inkscape:window-height="1055"
     inkscape:window-x="63"
     inkscape:window-y="-7"
     inkscape:window-maximized="1"
     inkscape:pagecheckerboard="0"
     inkscape:showpageshadow="2"
     inkscape:deskcolor="#d1d1d1" />
  <metadata
     id="metadata5">
    <rdf:RDF>
      <cc:Work
         rdf:about="">
        <dc:format>image/svg+xml</dc:format>
        <dc:type
           rdf:resource="http://purl.org/dc/dcmitype/StillImage" />
      </cc:Work>
    </rdf:RDF>
  </metadata>
  <g
     inkscape:label="图层 1"
     inkscape:groupmode="layer"
     id="layer1">
    <path
       id="rect963"
       style="fill:#ffffff;stroke:#000000;stroke-width:0.227712;stroke-linecap:round;stroke-linejoin:round;paint-order:markers fill stroke"
       d="M 34.502705,28.012856 13.25932,49.256241 34.502705,70.499621 55.746089,49.256241 Z" />
    <path
       id="path965"
       style="fill:#ffffff;stroke:#000000;stroke-width:0.236374;stroke-linecap:round;stroke-linejoin:round;paint-order:markers fill stroke"
       inkscape:transform-center-x="0.20811217"
       inkscape:transform-center-y="-13.239523"
       d="m 19.409316,43.919765 15.351234,-0.01077 15.351263,-0.01077 -7.66627,13.299961 -7.666282,13.299964 -7.68498,-13.289166 z" />
    <path
       id="ellipse981"
       style="fill:none;stroke:#000000;stroke-width:0.200141;stroke-linecap:round;stroke-linejoin:round;stroke-dasharray:0.800561, 0.800561;paint-order:markers fill stroke"
       d="M 49.111845,49.279087 A 14.623198,15.262378 0 0 1 34.488654,64.54147 14.623198,15.262378 0 0 1 19.865462,49.279087 14.623198,15.262378 0 0 1 34.488654,34.016707 14.623198,15.262378 0 0 1 49.111845,49.279087 Z" />
    <path
       id="ellipse890"
       style="fill:none;stroke:#000000;stroke-width:0.11612;stroke-linecap:round;stroke-linejoin:round;stroke-dasharray:0.464481, 0.464481;paint-order:markers fill stroke"
       d="m 42.733309,53.371102 a 8.4842564,8.8551043 0 0 1 -8.484253,8.855099 8.4842564,8.8551043 0 0 1 -8.484254,-8.855099 8.4842564,8.8551043 0 0 1 8.484254,-8.855105 8.4842564,8.8551043 0 0 1 8.484253,8.855105 z" />
    <path
       id="path902-3"
       style="fill:#ff0000;stroke:#000000;stroke-width:0.100554"
       d="m 34.882362,53.284706 a 0.39124612,0.39124612 0 0 1 -0.391245,0.391248 0.39124612,0.39124612 0 0 1 -0.391245,-0.391248 0.39124612,0.39124612 0 0 1 0.391245,-0.391247 0.39124612,0.39124612 0 0 1 0.391245,0.391247 z" />
    <path
       id="circle904-0"
       style="fill:#00ff00;stroke:#000000;stroke-width:0.100554"
       d="m 34.893963,49.256221 a 0.39124612,0.39124612 0 0 1 -0.391245,0.391247 0.39124612,0.39124612 0 0 1 -0.391245,-0.391247 0.39124612,0.39124612 0 0 1 0.391245,-0.391244 0.39124612,0.39124612 0 0 1 0.391245,0.391244 z" />
    <path
       id="ellipse7925"
       style="fill:none;stroke:#000000;stroke-width:0.366;stroke-linecap:round;stroke-linejoin:round;stroke-dasharray:1.09799857,1.09799857;paint-order:markers fill stroke;stroke-dashoffset:0"
       d="M 111.70237,49.167717 A 18.27066,18.473649 0 0 1 93.431711,67.641365 18.27066,18.473649 0 0 1 75.161062,49.167717 18.27066,18.473649 0 0 1 93.431711,30.694068 18.27066,18.473649 0 0 1 111.70237,49.167717 Z" />
    <path
       id="path7927"
       style="fill:url(#meshgradient999);stroke:#000000;stroke-width:0.185408;stroke-linecap:round;stroke-linejoin:round;paint-order:markers fill stroke"
       inkscape:transform-center-x="1.389328"
       inkscape:transform-center-y="1.7637958"
       d="m 97.649629,62.045018 -8.901933,-8.964124 -8.901942,-8.964134 12.214129,-3.227242 12.214137,-3.227233 -3.3122,12.191367 z" />
    <path
       id="ellipse7929"
       style="fill:none;stroke:#000000;stroke-width:0.104569;stroke-linecap:round;stroke-linejoin:round;paint-order:markers fill stroke"
       d="m 101.22051,47.784533 a 7.2615132,7.181723 88.154617 0 1 -6.944154,7.489012 7.2615132,7.181723 88.154617 0 1 -7.411837,-7.026473 7.2615132,7.181723 88.154617 0 1 6.94416,-7.48902 7.2615132,7.181723 88.154617 0 1 7.411831,7.026481 z" />
    <path
       id="ellipse8486"
       style="fill:#000000;stroke:#000000;stroke-width:0.0689951;stroke-linecap:round;stroke-linejoin:round;paint-order:markers fill stroke"
       d="m 94.634529,47.996724 a 0.59890085,0.59232004 88.154617 0 1 -0.572726,0.617664 0.59890085,0.59232004 88.154617 0 1 -0.611297,-0.579517 0.59890085,0.59232004 88.154617 0 1 0.572727,-0.617664 0.59890085,0.59232004 88.154617 0 1 0.611296,0.579517 z" />
    <text
       xml:space="preserve"
       style="font-size:7.80034px;line-height:1.25;font-family:sans-serif;word-spacing:0px;stroke-width:0.365641"
       x="13.369251"
       y="21.887737"
       id="text9174"
       transform="scale(1.067711,0.93658302)"><tspan
         sodipodi:role="line"
         id="tspan9172"
         style="stroke-width:0.365641"
         x="13.369251"
         y="21.887737">ATS:VTS </tspan></text>
    <path
       id="path1074"
       style="fill:none;stroke:#000000;stroke-width:0.313656;stroke-linecap:round;stroke-linejoin:round;paint-order:markers fill stroke"
       inkscape:transform-center-x="0.12796016"
       inkscape:transform-center-y="-9.0851417"
       d="m 181.27952,70.128597 -20.36358,-0.14165 -20.36361,-0.141651 10.30441,-17.575137 10.30443,-17.57516 10.05917,17.716825 z" />
    <path
       style="fill:none;stroke:#ff5555;stroke-width:0.29;stroke-linecap:butt;stroke-linejoin:miter;stroke-miterlimit:4;stroke-dasharray:none;stroke-dashoffset:0;stroke-opacity:1"
       d="m 84.763217,108.61308 c 9.193209,0 18.386143,0 22.982453,0.006 4.59632,0.006 4.59632,0.018 4.59632,0.0295"
       id="path1078"
       inkscape:path-effect="#path-effect1080"
       inkscape:original-d="m 84.763217,108.61308 c 9.193209,2.9e-4 18.386143,2.9e-4 27.578773,0 2.9e-4,0.0122 2.9e-4,0.0241 0,0.0356"
       transform="matrix(1.4755224,0,0,1.4755224,15.554238,-125.62245)" />
    <path
       style="fill:none;stroke:#000080;stroke-width:0.271337;stroke-linecap:butt;stroke-linejoin:miter;stroke-miterlimit:4;stroke-dasharray:1.08535, 0.271337;stroke-dashoffset:0;stroke-opacity:1"
       d="m 98.681606,108.65129 c 0,8.06171 0,16.12319 -0.0061,20.15378 -0.0061,4.03059 -0.01801,4.03059 -0.02951,4.03059"
       id="path1086"
       inkscape:path-effect="#path-effect1088"
       inkscape:original-d="m 98.681606,108.65129 c -2.85e-4,8.06171 -2.85e-4,16.12319 0,24.18437 -0.01216,2.7e-4 -0.02409,2.7e-4 -0.03559,0"
       transform="matrix(1.4755224,0,0,1.4755224,15.554238,-125.62245)" />
    <path
       style="fill:none;stroke:#00ff00;stroke-width:0.348;stroke-linecap:butt;stroke-linejoin:miter;stroke-miterlimit:4;stroke-dasharray:none;stroke-dashoffset:0;stroke-opacity:1"
       d="m 98.717203,105.00547 c 0,1.21533 0,2.43061 -0.0061,3.03823 -0.0061,0.60762 -0.01801,0.60762 -0.02949,0.60762"
       id="path1090"
       inkscape:path-effect="#path-effect1092"
       inkscape:original-d="m 98.717203,105.00547 c -2.86e-4,1.21533 -2.86e-4,2.43061 0,3.64585 -0.01217,4e-5 -0.02409,4e-5 -0.03558,0"
       transform="matrix(1.4755224,0,0,1.4755224,15.554238,-125.62245)" />
    <path
       id="path1150"
       style="fill:#00ff00;stroke:#000000;stroke-width:0.314012;stroke-linecap:round;stroke-linejoin:round;stroke-dasharray:1.88408, 0.314012;paint-order:markers fill stroke"
       d="m 161.94865,49.675995 a 0.73695201,0.73695201 0 0 1 -0.73695,0.736952 0.73695201,0.73695201 0 0 1 -0.73695,-0.736952 0.73695201,0.73695201 0 0 1 0.73695,-0.736952 0.73695201,0.73695201 0 0 1 0.73695,0.736952 z" />
    <path
       id="path1152"
       style="fill:none;stroke:#000000;stroke-width:0.00945609;stroke-linecap:round;stroke-linejoin:round;paint-order:markers fill stroke"
       inkscape:transform-center-x="0.0038596754"
       inkscape:transform-center-y="-0.27387436"
       d="m 141.62813,35.611092 -0.61391,-0.0044 -0.61393,-0.0044 0.31066,-0.52986 0.31066,-0.52986 0.30326,0.534125 z" />
    <path
       id="circle11895"
       style="fill:#ff0000;stroke:#000000;stroke-width:0.314012;stroke-linecap:round;stroke-linejoin:round;paint-order:markers fill stroke"
       d="m 161.94865,52.411777 a 0.73695201,0.73695201 0 0 1 -0.73695,0.736953 0.73695201,0.73695201 0 0 1 -0.73695,-0.736953 0.73695201,0.73695201 0 0 1 0.73695,-0.736952 0.73695201,0.73695201 0 0 1 0.73695,0.736952 z" />
    <path
       style="fill:#0000ff;stroke:#0000ff;stroke-width:0.289753;stroke-linecap:butt;stroke-linejoin:miter;stroke-miterlimit:4;stroke-dasharray:none;stroke-dashoffset:0;stroke-opacity:1"
       d="m 84.763217,108.61308 c 9.193209,0 18.386143,0 22.982453,0.006 4.59632,0.006 4.59632,0.018 4.59632,0.0295"
       id="path3"
       inkscape:path-effect="#path-effect4"
       inkscape:original-d="m 84.763217,108.61308 c 9.193209,2.9e-4 18.386143,2.9e-4 27.578773,0 2.9e-4,0.0122 2.9e-4,0.0241 0,0.0356"
       transform="matrix(1.4755224,0,0,1.4755224,15.554238,-90.096175)" />
    <text
       xml:space="preserve"
       style="font-size:4.11242px;line-height:1.25;font-family:sans-serif;stroke-width:0.12;stroke-dasharray:none;stroke:#000000;stroke-opacity:1"
       x="139.90982"
       y="86.91098"
       id="text4"
       transform="scale(1.1514183,0.86849409)"><tspan
         sodipodi:role="line"
         id="tspan4"
         x="139.90982"
         y="86.91098"
         style="stroke-width:0.12;stroke-dasharray:none;stroke:#000000;stroke-opacity:1">L'ANK</tspan><tspan
         sodipodi:role="line"
         x="139.90982"
         y="92.051498"
         style="stroke-width:0.12;stroke-dasharray:none;stroke:#000000;stroke-opacity:1"
         id="tspan5" /></text>
    <text
       xml:space="preserve"
       style="font-size:5.06383px;line-height:1.25;font-family:sans-serif;letter-spacing:0px;stroke-width:0.316489"
       x="54.295139"
       y="-15.936683"
       id="text1"
       transform="scale(1.067711,0.93658302)"><tspan
         sodipodi:role="line"
         id="tspan1"
         style="stroke-width:0.316489"
         x="54.295139"
         y="-15.936683">SMT</tspan></text>
    <path
       id="circle2"
       style="fill:#0000ff;stroke:#000000;stroke-width:0.314012;stroke-linecap:round;stroke-linejoin:round;stroke-dasharray:1.88408, 0.314012;paint-order:markers fill stroke"
       d="m 161.94865,55.534969 a 0.73695201,0.73695201 0 0 1 -0.73695,0.736952 0.73695201,0.73695201 0 0 1 -0.73695,-0.736952 0.73695201,0.73695201 0 0 1 0.73695,-0.736952 0.73695201,0.73695201 0 0 1 0.73695,0.736952 z" />
    <text
       xml:space="preserve"
       style="font-size:7.62906px;line-height:1.25;font-family:sans-serif;letter-spacing:0px;stroke-width:0.476815"
       x="134.15158"
       y="20.926914"
       id="text2"
       transform="scale(1.0457023,0.95629511)"><tspan
         sodipodi:role="line"
         id="tspan2"
         style="stroke-width:0.476815"
         x="134.15158"
         y="20.926914">ITF:TNS</tspan></text>
    <text
       xml:space="preserve"
       style="font-size:6.16425px;line-height:1.25;font-family:sans-serif;letter-spacing:0px;fill:#ff0000;stroke-width:0.385266"
       x="169.21629"
       y="-4.4578819"
       id="text3"
       transform="scale(1.0383386,0.96307697)"><tspan
         sodipodi:role="line"
         id="tspan3"
         style="fill:#ff0000;stroke-width:0.385266"
         x="169.21629"
         y="-4.4578819">RTF-^TSK</tspan><tspan
         sodipodi:role="line"
         style="fill:#ff0000;stroke-width:0.385266"
         x="169.21629"
         y="3.2474306"
         id="tspan9" /></text>
    <text
       xml:space="preserve"
       style="font-size:6.16425px;line-height:1.25;font-family:sans-serif;letter-spacing:0px;fill:#00ff00;stroke-width:0.385;stroke-dasharray:none"
       x="180.41873"
       y="42.141125"
       id="text6"
       transform="scale(1.0383386,0.96307697)"><tspan
         sodipodi:role="line"
         id="tspan6"
         style="fill:#00ff00;stroke-width:0.385;stroke-dasharray:none"
         x="180.41873"
         y="42.141125">F.</tspan></text>
    <text
       xml:space="preserve"
       style="font-size:6.16425px;line-height:1.25;font-family:sans-serif;letter-spacing:0px;fill:#0000ff;stroke-width:0.385;stroke-dasharray:none"
       x="180.31879"
       y="35.118973"
       id="text7"
       transform="scale(1.0383386,0.96307697)"><tspan
         sodipodi:role="line"
         id="tspan7"
         style="fill:#0000ff;stroke-width:0.385;stroke-dasharray:none"
         x="180.31879"
         y="35.118973">T.</tspan></text>
    <text
       xml:space="preserve"
       style="font-size:6.36972px;line-height:1.25;font-family:sans-serif;letter-spacing:0px;stroke-width:0.398106"
       x="169.72281"
       y="-12.94064"
       id="text8"
       transform="scale(1.0383386,0.96307697)"><tspan
         sodipodi:role="line"
         id="tspan8"
         style="stroke-width:0.398106"
         x="169.72281"
         y="-12.94064">RSH:MTH</tspan></text>
    <text
       xml:space="preserve"
       style="font-size:7.86933px;line-height:1.25;font-family:sans-serif;letter-spacing:0px;stroke-width:0.491833"
       x="168.89259"
       y="-22.57506"
       id="text11"
       transform="scale(1.0457023,0.95629511)"><tspan
         sodipodi:role="line"
         id="tspan11"
         style="stroke-width:0.491833"
         x="168.89259"
         y="-22.57506">MKS^A.VlS</tspan></text>
    <text
       xml:space="preserve"
       style="font-size:7.67466px;line-height:1.25;font-family:sans-serif;letter-spacing:0px;stroke-width:0.479665"
       x="71.6157"
       y="21.351431"
       id="text10"
       transform="scale(1.0383386,0.96307697)"><tspan
         sodipodi:role="line"
         id="tspan10"
         style="stroke-width:0.479665"
         x="71.6157"
         y="21.351431">SRT-MTS</tspan></text>
    <path
       id="rect1"
       style="fill:none;stroke:#000000;stroke-width:0.599;stroke-miterlimit:5.5;stroke-dasharray:2.396, 1.19801"
       d="m 140.30927,29.215054 h 41.07785 v 41.372539 h -41.07785 z" />
    <text
       xml:space="preserve"
       style="font-size:4.11242px;line-height:1.25;font-family:sans-serif;stroke-width:0.129;stroke-dasharray:none;stroke:#000000;stroke-opacity:1"
       x="144.48775"
       y="44.919003"
       id="text13"
       transform="scale(1.1514183,0.86849409)"><tspan
         sodipodi:role="line"
         id="tspan12"
         x="144.48775"
         y="44.919003"
         style="stroke-width:0.129;stroke-dasharray:none;stroke:#000000;stroke-opacity:1">I'ANK</tspan><tspan
         sodipodi:role="line"
         x="144.48775"
         y="50.059528"
         style="stroke-width:0.129;stroke-dasharray:none;stroke:#000000;stroke-opacity:1"
         id="tspan13" /></text>
    <text
       xml:space="preserve"
       style="font-size:6.16425px;line-height:1.25;font-family:sans-serif;letter-spacing:0px;fill:#ff0000;stroke-width:0.385;stroke-dasharray:none"
       x="180.16495"
       y="49.839993"
       id="text14"
       transform="scale(1.0383386,0.96307697)"><tspan
         sodipodi:role="line"
         id="tspan14"
         style="fill:#ff0000;stroke-width:0.385;stroke-dasharray:none"
         x="180.16495"
         y="49.839993">S.</tspan></text>
  </g>
</svg>
