<?xml version="1.0" encoding="UTF-8" standalone="no"?>
<svg
   width="297mm"
   height="210mm"
   viewBox="0 0 297 210"
   version="1.1"
   id="svg8"
   inkscape:version="1.3 (0e150ed6c4, 2023-07-21)"
   sodipodi:docname="ITF.svg"
   xmlns:inkscape="http://www.inkscape.org/namespaces/inkscape"
   xmlns:sodipodi="http://sodipodi.sourceforge.net/DTD/sodipodi-0.dtd"
   xmlns="http://www.w3.org/2000/svg"
   xmlns:svg="http://www.w3.org/2000/svg"
   xmlns:rdf="http://www.w3.org/1999/02/22-rdf-syntax-ns#"
   xmlns:cc="http://creativecommons.org/ns#"
   xmlns:dc="http://purl.org/dc/elements/1.1/">
  <defs
     id="defs2">
    <inkscape:path-effect
       effect="bspline"
       id="path-effect4"
       is_visible="true"
       lpeversion="1"
       weight="33.333333"
       steps="2"
       helper_size="0"
       apply_no_weight="true"
       apply_with_weight="true"
       only_selected="false"
       uniform="false" />
    <inkscape:path-effect
       effect="bspline"
       id="path-effect1080"
       is_visible="true"
       lpeversion="1"
       weight="33.333333"
       steps="2"
       helper_size="0"
       apply_no_weight="true"
       apply_with_weight="true"
       only_selected="false"
       uniform="false" />
    <inkscape:path-effect
       effect="bspline"
       id="path-effect1088"
       is_visible="true"
       lpeversion="1"
       weight="33.333333"
       steps="2"
       helper_size="0"
       apply_no_weight="true"
       apply_with_weight="true"
       only_selected="false"
       uniform="false" />
    <inkscape:path-effect
       effect="bspline"
       id="path-effect1092"
       is_visible="true"
       lpeversion="1"
       weight="33.333333"
       steps="2"
       helper_size="0"
       apply_no_weight="true"
       apply_with_weight="true"
       only_selected="false"
       uniform="false" />
  </defs>
  <sodipodi:namedview
     id="base"
     pagecolor="#ffffff"
     bordercolor="#666666"
     borderopacity="1.0"
     inkscape:pageopacity="0.0"
     inkscape:pageshadow="2"
     inkscape:zoom="1.4556538"
     inkscape:cx="408.06406"
     inkscape:cy="290.24758"
     inkscape:document-units="mm"
     inkscape:current-layer="layer1"
     inkscape:document-rotation="0"
     showgrid="false"
     inkscape:snap-global="false"
     inkscape:window-width="1858"
     inkscape:window-height="1057"
     inkscape:window-x="-8"
     inkscape:window-y="-8"
     inkscape:window-maximized="1"
     inkscape:pagecheckerboard="0"
     inkscape:showpageshadow="2"
     inkscape:deskcolor="#d1d1d1" />
  <metadata
     id="metadata5">
    <rdf:RDF>
      <cc:Work
         rdf:about="">
        <dc:format>image/svg+xml</dc:format>
        <dc:type
           rdf:resource="http://purl.org/dc/dcmitype/StillImage" />
      </cc:Work>
    </rdf:RDF>
  </metadata>
  <g
     inkscape:label="图层 1"
     inkscape:groupmode="layer"
     id="layer1">
    <path
       id="rect963"
       style="fill:#ffffff;stroke:#000000;stroke-width:0.227712;stroke-linecap:round;stroke-linejoin:round;paint-order:markers fill stroke"
       d="M 34.502705,28.012856 13.25932,49.256241 34.502705,70.499621 55.746089,49.256241 Z" />
    <path
       id="path965"
       style="fill:#ffffff;stroke:#000000;stroke-width:0.236374;stroke-linecap:round;stroke-linejoin:round;paint-order:markers fill stroke"
       inkscape:transform-center-x="0.20811217"
       inkscape:transform-center-y="-13.239523"
       d="m 19.409316,43.919765 15.351234,-0.01077 15.351263,-0.01077 -7.66627,13.299961 -7.666282,13.299964 -7.68498,-13.289166 z" />
    <path
       id="ellipse981"
       style="fill:none;stroke:#000000;stroke-width:0.200141;stroke-linecap:round;stroke-linejoin:round;stroke-dasharray:0.800561, 0.800561;paint-order:markers fill stroke"
       d="M 49.111845,49.279087 A 14.623198,15.262378 0 0 1 34.488654,64.54147 14.623198,15.262378 0 0 1 19.865462,49.279087 14.623198,15.262378 0 0 1 34.488654,34.016707 14.623198,15.262378 0 0 1 49.111845,49.279087 Z" />
    <path
       id="ellipse890"
       style="fill:none;stroke:#000000;stroke-width:0.11612;stroke-linecap:round;stroke-linejoin:round;stroke-dasharray:0.464481, 0.464481;paint-order:markers fill stroke"
       d="m 42.733309,53.371102 a 8.4842564,8.8551043 0 0 1 -8.484253,8.855099 8.4842564,8.8551043 0 0 1 -8.484254,-8.855099 8.4842564,8.8551043 0 0 1 8.484254,-8.855105 8.4842564,8.8551043 0 0 1 8.484253,8.855105 z" />
    <path
       id="path902-3"
       style="fill:#ff0000;stroke:#000000;stroke-width:0.100554"
       d="m 34.882362,53.284706 a 0.39124612,0.39124612 0 0 1 -0.391245,0.391248 0.39124612,0.39124612 0 0 1 -0.391245,-0.391248 0.39124612,0.39124612 0 0 1 0.391245,-0.391247 0.39124612,0.39124612 0 0 1 0.391245,0.391247 z" />
    <path
       id="circle904-0"
       style="fill:#00ff00;stroke:#000000;stroke-width:0.100554"
       d="m 34.893963,49.256221 a 0.39124612,0.39124612 0 0 1 -0.391245,0.391247 0.39124612,0.39124612 0 0 1 -0.391245,-0.391247 0.39124612,0.39124612 0 0 1 0.391245,-0.391244 0.39124612,0.39124612 0 0 1 0.391245,0.391244 z" />
    <path
       id="ellipse7925"
       style="fill:none;stroke:#000000;stroke-width:0.366;stroke-linecap:round;stroke-linejoin:round;stroke-dasharray:1.09799857,1.09799857;paint-order:markers fill stroke;stroke-dashoffset:0"
       d="M 111.70237,49.167717 A 18.27066,18.473649 0 0 1 93.431711,67.641365 18.27066,18.473649 0 0 1 75.161062,49.167717 18.27066,18.473649 0 0 1 93.431711,30.694068 18.27066,18.473649 0 0 1 111.70237,49.167717 Z" />
    <path
       id="path7927"
       style="fill:url(#meshgradient999);stroke:#000000;stroke-width:0.185408;stroke-linecap:round;stroke-linejoin:round;paint-order:markers fill stroke"
       inkscape:transform-center-x="1.389328"
       inkscape:transform-center-y="1.7637958"
       d="m 97.649629,62.045018 -8.901933,-8.964124 -8.901942,-8.964134 12.214129,-3.227242 12.214137,-3.227233 -3.3122,12.191367 z" />
    <path
       id="ellipse7929"
       style="fill:none;stroke:#000000;stroke-width:0.104569;stroke-linecap:round;stroke-linejoin:round;paint-order:markers fill stroke"
       d="m 101.22051,47.784533 a 7.2615132,7.181723 88.154617 0 1 -6.944154,7.489012 7.2615132,7.181723 88.154617 0 1 -7.411837,-7.026473 7.2615132,7.181723 88.154617 0 1 6.94416,-7.48902 7.2615132,7.181723 88.154617 0 1 7.411831,7.026481 z" />
    <path
       id="ellipse8486"
       style="fill:#000000;stroke:#000000;stroke-width:0.0689951;stroke-linecap:round;stroke-linejoin:round;paint-order:markers fill stroke"
       d="m 94.634529,47.996724 a 0.59890085,0.59232004 88.154617 0 1 -0.572726,0.617664 0.59890085,0.59232004 88.154617 0 1 -0.611297,-0.579517 0.59890085,0.59232004 88.154617 0 1 0.572727,-0.617664 0.59890085,0.59232004 88.154617 0 1 0.611296,0.579517 z" />
    <text
       xml:space="preserve"
       style="font-size:7.80034px;line-height:1.25;font-family:sans-serif;word-spacing:0px;stroke-width:0.365641"
       x="13.369251"
       y="21.887737"
       id="text9174"
       transform="scale(1.067711,0.93658302)"><tspan
         sodipodi:role="line"
         id="tspan9172"
         style="stroke-width:0.365641"
         x="13.369251"
         y="21.887737">ATS:VTS </tspan></text>
    <path
       id="path1074"
       style="fill:none;stroke:#000000;stroke-width:0.283088;stroke-linecap:round;stroke-linejoin:round;paint-order:markers fill stroke"
       inkscape:transform-center-x="0.11549353"
       inkscape:transform-center-y="-8.1997268"
       d="m 177.25747,66.112078 -18.37899,-0.127845 -18.37903,-0.127846 9.30017,-15.862309 9.30019,-15.862329 9.07883,15.990188 z" />
    <path
       style="fill:none;stroke:#ff5555;stroke-width:0.29;stroke-linecap:butt;stroke-linejoin:miter;stroke-miterlimit:4;stroke-dasharray:none;stroke-dashoffset:0;stroke-opacity:1"
       d="m 84.763217,108.61308 c 9.193209,0 18.386143,0 22.982453,0.006 4.59632,0.006 4.59632,0.018 4.59632,0.0295"
       id="path1078"
       inkscape:path-effect="#path-effect1080"
       inkscape:original-d="m 84.763217,108.61308 c 9.193209,2.9e-4 18.386143,2.9e-4 27.578773,0 2.9e-4,0.0122 2.9e-4,0.0241 0,0.0356"
       transform="matrix(1.3317217,0,0,1.3317217,27.683359,-110.56157)" />
    <path
       style="fill:none;stroke:#000080;stroke-width:0.271337;stroke-linecap:butt;stroke-linejoin:miter;stroke-miterlimit:4;stroke-dasharray:1.08535, 0.271337;stroke-dashoffset:0;stroke-opacity:1"
       d="m 98.681606,108.65129 c 0,8.06171 0,16.12319 -0.0061,20.15378 -0.0061,4.03059 -0.01801,4.03059 -0.02951,4.03059"
       id="path1086"
       inkscape:path-effect="#path-effect1088"
       inkscape:original-d="m 98.681606,108.65129 c -2.85e-4,8.06171 -2.85e-4,16.12319 0,24.18437 -0.01216,2.7e-4 -0.02409,2.7e-4 -0.03559,0"
       transform="matrix(1.3317217,0,0,1.3317217,27.683359,-110.56157)" />
    <path
       style="fill:none;stroke:#00ff00;stroke-width:0.348;stroke-linecap:butt;stroke-linejoin:miter;stroke-miterlimit:4;stroke-dasharray:none;stroke-dashoffset:0;stroke-opacity:1"
       d="m 98.717203,105.00547 c 0,1.21533 0,2.43061 -0.0061,3.03823 -0.0061,0.60762 -0.01801,0.60762 -0.02949,0.60762"
       id="path1090"
       inkscape:path-effect="#path-effect1092"
       inkscape:original-d="m 98.717203,105.00547 c -2.86e-4,1.21533 -2.86e-4,2.43061 0,3.64585 -0.01217,4e-5 -0.02409,4e-5 -0.03558,0"
       transform="matrix(1.3317217,0,0,1.3317217,27.683359,-110.56157)" />
    <path
       id="path1150"
       style="fill:#00ff00;stroke:#000000;stroke-width:0.283409;stroke-linecap:round;stroke-linejoin:round;stroke-dasharray:1.70046, 0.283409;paint-order:markers fill stroke"
       d="m 159.81054,47.652735 a 0.66513053,0.66513053 0 0 1 -0.66513,0.66513 0.66513053,0.66513053 0 0 1 -0.66513,-0.66513 0.66513053,0.66513053 0 0 1 0.66513,-0.665131 0.66513053,0.66513053 0 0 1 0.66513,0.665131 z" />
    <path
       id="path1152"
       style="fill:none;stroke:#000000;stroke-width:0.00853452;stroke-linecap:round;stroke-linejoin:round;paint-order:markers fill stroke"
       inkscape:transform-center-x="0.003483342"
       inkscape:transform-center-y="-0.2472117"
       d="m 141.47041,34.958562 -0.55408,-0.004 -0.5541,-0.004 0.28038,-0.478221 0.28039,-0.478221 0.2737,0.482071 z" />
    <path
       id="circle11895"
       style="fill:#ff0000;stroke:#000000;stroke-width:0.283409;stroke-linecap:round;stroke-linejoin:round;paint-order:markers fill stroke"
       d="m 159.81054,50.121895 a 0.66513053,0.66513053 0 0 1 -0.66513,0.665131 0.66513053,0.66513053 0 0 1 -0.66513,-0.665131 0.66513053,0.66513053 0 0 1 0.66513,-0.665131 0.66513053,0.66513053 0 0 1 0.66513,0.665131 z" />
    <path
       style="fill:#0000ff;stroke:#0000ff;stroke-width:0.289753;stroke-linecap:butt;stroke-linejoin:miter;stroke-miterlimit:4;stroke-dasharray:none;stroke-dashoffset:0;stroke-opacity:1"
       d="m 84.763217,108.61308 c 9.193209,0 18.386143,0 22.982453,0.006 4.59632,0.006 4.59632,0.018 4.59632,0.0295"
       id="path3"
       inkscape:path-effect="#path-effect4"
       inkscape:original-d="m 84.763217,108.61308 c 9.193209,2.9e-4 18.386143,2.9e-4 27.578773,0 2.9e-4,0.0122 2.9e-4,0.0241 0,0.0356"
       transform="matrix(1.3317217,0,0,1.3317217,27.683359,-78.497593)" />
    <text
       xml:space="preserve"
       style="font-size:3.71163px;line-height:1.25;font-family:sans-serif;stroke:#000000;stroke-width:0.108305;stroke-dasharray:none;stroke-opacity:1"
       x="138.12517"
       y="81.685593"
       id="text4"
       transform="scale(1.1514183,0.86849409)"><tspan
         sodipodi:role="line"
         id="tspan4"
         x="138.12517"
         y="81.685593"
         style="stroke:#000000;stroke-width:0.108305;stroke-dasharray:none;stroke-opacity:1">L'ANK</tspan><tspan
         sodipodi:role="line"
         x="138.12517"
         y="86.325134"
         style="stroke:#000000;stroke-width:0.108305;stroke-dasharray:none;stroke-opacity:1"
         id="tspan5" /></text>
    <text
       xml:space="preserve"
       style="font-size:5.06383px;line-height:1.25;font-family:sans-serif;letter-spacing:0px;stroke-width:0.316489"
       x="54.295139"
       y="-15.936683"
       id="text1"
       transform="scale(1.067711,0.93658302)"><tspan
         sodipodi:role="line"
         id="tspan1"
         style="stroke-width:0.316489"
         x="54.295139"
         y="-15.936683">SMT</tspan></text>
    <path
       id="circle2"
       style="fill:#0000ff;stroke:#000000;stroke-width:0.283409;stroke-linecap:round;stroke-linejoin:round;stroke-dasharray:1.70046, 0.283409;paint-order:markers fill stroke"
       d="m 159.81054,52.940708 a 0.66513053,0.66513053 0 0 1 -0.66513,0.665131 0.66513053,0.66513053 0 0 1 -0.66513,-0.665131 0.66513053,0.66513053 0 0 1 0.66513,-0.66513 0.66513053,0.66513053 0 0 1 0.66513,0.66513 z" />
    <text
       xml:space="preserve"
       style="font-size:7.62906px;line-height:1.25;font-family:sans-serif;letter-spacing:0px;stroke-width:0.476815"
       x="134.15158"
       y="20.926914"
       id="text2"
       transform="scale(1.0457023,0.95629511)"><tspan
         sodipodi:role="line"
         id="tspan2"
         style="stroke-width:0.476815"
         x="134.15158"
         y="20.926914">ITF:TNS</tspan></text>
    <text
       xml:space="preserve"
       style="font-size:6.16425px;line-height:1.25;font-family:sans-serif;letter-spacing:0px;fill:#ff0000;stroke-width:0.385266"
       x="169.21629"
       y="-4.4578819"
       id="text3"
       transform="scale(1.0383386,0.96307697)"><tspan
         sodipodi:role="line"
         id="tspan3"
         style="fill:#ff0000;stroke-width:0.385266"
         x="169.21629"
         y="-4.4578819">RTF-^TSK</tspan><tspan
         sodipodi:role="line"
         style="fill:#ff0000;stroke-width:0.385266"
         x="169.21629"
         y="3.2474306"
         id="tspan9" /></text>
    <text
       xml:space="preserve"
       style="font-size:5.5635px;line-height:1.25;font-family:sans-serif;letter-spacing:0px;fill:#00ff00;stroke-width:0.347479;stroke-dasharray:none"
       x="175.97676"
       y="40.960232"
       id="text6"
       transform="scale(1.0383386,0.96307697)"><tspan
         sodipodi:role="line"
         id="tspan6"
         style="fill:#00ff00;stroke-width:0.347479;stroke-dasharray:none"
         x="175.97676"
         y="40.960232">F.</tspan></text>
    <text
       xml:space="preserve"
       style="font-size:5.5635px;line-height:1.25;font-family:sans-serif;letter-spacing:0px;fill:#0000ff;stroke-width:0.347479;stroke-dasharray:none"
       x="175.88655"
       y="34.622444"
       id="text7"
       transform="scale(1.0383386,0.96307697)"><tspan
         sodipodi:role="line"
         id="tspan7"
         style="fill:#0000ff;stroke-width:0.347479;stroke-dasharray:none"
         x="175.88655"
         y="34.622444">T.</tspan></text>
    <text
       xml:space="preserve"
       style="font-size:6.36972px;line-height:1.25;font-family:sans-serif;letter-spacing:0px;stroke-width:0.398106"
       x="169.72281"
       y="-12.94064"
       id="text8"
       transform="scale(1.0383386,0.96307697)"><tspan
         sodipodi:role="line"
         id="tspan8"
         style="stroke-width:0.398106"
         x="169.72281"
         y="-12.94064">RSH:MTH</tspan></text>
    <text
       xml:space="preserve"
       style="font-size:7.86933px;line-height:1.25;font-family:sans-serif;letter-spacing:0px;stroke-width:0.491833"
       x="168.89259"
       y="-22.57506"
       id="text11"
       transform="scale(1.0457023,0.95629511)"><tspan
         sodipodi:role="line"
         id="tspan11"
         style="stroke-width:0.491833"
         x="168.89259"
         y="-22.57506">MKS^A.VlS</tspan></text>
    <text
       xml:space="preserve"
       style="font-size:7.67466px;line-height:1.25;font-family:sans-serif;letter-spacing:0px;stroke-width:0.479665"
       x="71.6157"
       y="21.351431"
       id="text10"
       transform="scale(1.0383386,0.96307697)"><tspan
         sodipodi:role="line"
         id="tspan10"
         style="stroke-width:0.479665"
         x="71.6157"
         y="21.351431">SRT-MTS</tspan></text>
    <path
       id="rect1"
       style="fill:none;stroke:#000000;stroke-width:0.3;stroke-miterlimit:5.5;stroke-dasharray:1.19999895,0.60000215;stroke-dashoffset:0"
       d="m 140.28008,29.185865 h 37.07451 v 37.340477 h -37.07451 z" />
    <text
       xml:space="preserve"
       style="font-size:3.71163px;line-height:1.25;font-family:sans-serif;stroke:#000000;stroke-width:0.116428;stroke-dasharray:none;stroke-opacity:1"
       x="142.25694"
       y="43.786049"
       id="text13"
       transform="scale(1.1514183,0.86849409)"><tspan
         sodipodi:role="line"
         id="tspan12"
         x="142.25694"
         y="43.786049"
         style="stroke:#000000;stroke-width:0.116428;stroke-dasharray:none;stroke-opacity:1">I'ANK</tspan><tspan
         sodipodi:role="line"
         x="142.25694"
         y="48.425591"
         style="stroke:#000000;stroke-width:0.116428;stroke-dasharray:none;stroke-opacity:1"
         id="tspan13" /></text>
    <text
       xml:space="preserve"
       style="font-size:5.5635px;line-height:1.25;font-family:sans-serif;letter-spacing:0px;fill:#ff0000;stroke-width:0.347479;stroke-dasharray:none"
       x="175.74771"
       y="47.908791"
       id="text14"
       transform="scale(1.0383386,0.96307697)"><tspan
         sodipodi:role="line"
         id="tspan14"
         style="fill:#ff0000;stroke-width:0.347479;stroke-dasharray:none"
         x="175.74771"
         y="47.908791">S.</tspan></text>
  </g>
</svg>
