<?xml version="1.0" encoding="UTF-8" standalone="no"?>
<svg
   width="297mm"
   height="210mm"
   viewBox="0 0 297 210"
   version="1.1"
   id="svg8"
   inkscape:version="1.3 (0e150ed6c4, 2023-07-21)"
   sodipodi:docname="LSK.svg"
   xmlns:inkscape="http://www.inkscape.org/namespaces/inkscape"
   xmlns:sodipodi="http://sodipodi.sourceforge.net/DTD/sodipodi-0.dtd"
   xmlns="http://www.w3.org/2000/svg"
   xmlns:svg="http://www.w3.org/2000/svg"
   xmlns:rdf="http://www.w3.org/1999/02/22-rdf-syntax-ns#"
   xmlns:cc="http://creativecommons.org/ns#"
   xmlns:dc="http://purl.org/dc/elements/1.1/">
  <defs
     id="defs2">
    <rect
       id="rect1116"
       height="66.680824"
       width="43.252426"
       y="202.20509"
       x="199.32159" />
    <rect
       id="rect1039"
       height="146.33739"
       width="352.86771"
       y="188.86893"
       x="-41.089806" />
    <pattern
       y="0"
       x="0"
       height="6"
       width="6"
       patternUnits="userSpaceOnUse"
       id="EMFhbasepattern" />
    <clipPath
       id="clipEmfPath1"
       clipPathUnits="userSpaceOnUse">
      <path
         id="path98"
         d="M 0,0 H 46.014488 V 43.013543 H 0 Z" />
    </clipPath>
    <pattern
       y="0"
       x="0"
       height="6"
       width="6"
       patternUnits="userSpaceOnUse"
       id="EMFhbasepattern-7" />
  </defs>
  <sodipodi:namedview
     id="base"
     pagecolor="#ffffff"
     bordercolor="#666666"
     borderopacity="1.0"
     inkscape:pageopacity="0.0"
     inkscape:pageshadow="2"
     inkscape:zoom="0.75989759"
     inkscape:cx="923.15071"
     inkscape:cy="466.51023"
     inkscape:document-units="mm"
     inkscape:current-layer="layer1"
     inkscape:document-rotation="0"
     showgrid="false"
     inkscape:window-width="1854"
     inkscape:window-height="1057"
     inkscape:window-x="-8"
     inkscape:window-y="-8"
     inkscape:window-maximized="1"
     inkscape:pagecheckerboard="0"
     showguides="true"
     inkscape:showpageshadow="2"
     inkscape:deskcolor="#d1d1d1" />
  <metadata
     id="metadata5">
    <rdf:RDF>
      <cc:Work
         rdf:about="">
        <dc:format>image/svg+xml</dc:format>
        <dc:type
           rdf:resource="http://purl.org/dc/dcmitype/StillImage" />
      </cc:Work>
    </rdf:RDF>
  </metadata>
  <g
     inkscape:label="图层 1"
     inkscape:groupmode="layer"
     id="layer1">
    <path
       style="fill:none;stroke:#000000;stroke-width:0.5;stroke-linecap:butt;stroke-linejoin:miter;stroke-miterlimit:8;stroke-dasharray:2, 0.5;stroke-dashoffset:0;stroke-opacity:1"
       d="m 83.609296,141.21144 -0.03741,-15.41689 h 26.709744 l -2e-5,15.4385 z"
       id="path1421" />
    <path
       style="fill:#e6e6e6;stroke:#000000;stroke-width:0.522524px;stroke-linecap:butt;stroke-linejoin:miter;stroke-miterlimit:8;stroke-dasharray:none;stroke-opacity:1"
       d="m -34.045025,111.4905 -0.0176,-12.54473 h 12.56233 l -10e-6,12.56232 z"
       id="path1921" />
    <path
       id="path13"
       d="m 29.542931,27.745028 2.490667,-1.459375 v 0.272417 l -2.490667,-1.439917 v 0 l -0.03892,-0.03892 -0.03892,-0.05837 v -0.03892 -0.05837 l 0.03892,-0.03892 0.03892,-0.03892 0.03892,-0.01946 h 0.05838 l 0.05837,0.01946 v 0 l 2.724166,1.576125 -2.724166,1.595583 v 0 l -0.05837,0.01946 h -0.05838 l -0.03892,-0.01946 -0.03892,-0.03892 -0.03892,-0.03892 v -0.05837 -0.05837 l 0.03892,-0.03892 z M 14.443265,26.266195 h 17.668166 v 0 0.311333 0 H 14.443265 v 0 z"
       style="fill:#cccccc;fill-opacity:1;fill-rule:nonzero;stroke:#666666;stroke-width:0.264583" />
    <path
       id="path15"
       d="m 35.302603,25.09869 -2.490667,1.459375 v -0.272417 l 2.490667,1.459375 v 0 l 0.03892,0.03892 0.01946,0.03892 0.01946,0.05837 -0.01946,0.03892 -0.01946,0.05837 -0.03892,0.03892 -0.05837,0.01946 h -0.05838 l -0.03892,-0.01946 v 0 l -2.724166,-1.595585 2.724166,-1.595583 v 0 l 0.03892,-0.01946 h 0.05838 l 0.05837,0.01946 0.03892,0.03892 0.01946,0.05837 0.01946,0.03892 -0.01946,0.05837 -0.01946,0.03892 z m 11.733375,2.646333 2.490666,-1.459375 v 0.272417 L 47.035978,25.09869 v 0 l -0.03892,-0.03892 -0.01946,-0.03892 -0.01946,-0.05837 0.01946,-0.03892 0.01946,-0.05838 0.03892,-0.03892 0.05838,-0.01946 h 0.05837 l 0.03892,0.01946 v 0 l 2.724167,1.595583 -2.724167,1.595583 v 0 l -0.03892,0.01946 h -0.05837 l -0.05838,-0.01946 -0.03892,-0.03892 -0.01946,-0.05837 -0.01946,-0.03892 0.01946,-0.05837 0.01946,-0.03892 z M 32.734103,26.26619 h 16.870375 v 0 0.311333 0 H 32.734103 v 0 z"
       style="fill:none;fill-opacity:1;fill-rule:nonzero;stroke:#000000;stroke-width:0.264583" />
    <path
       id="path17"
       d="M 93.221725,80.069165 V 96.489091 H 110.17141 V 80.069165 Z"
       style="fill:none;fill-opacity:1;fill-rule:evenodd;stroke:#000000;stroke-width:0.450141" />
    <path
       id="path23"
       d="m 52.431537,69.788654 c 0,-0.97291 0.797792,-1.77071 1.770707,-1.77071 h 7.02446 c 0.972915,0 1.751248,0.7978 1.751248,1.77071 v 7.02446 c 0,0.97292 -0.778333,1.75125 -1.751248,1.75125 h -7.02446 c -0.972915,0 -1.770707,-0.77833 -1.770707,-1.75125 z"
       style="fill:none;stroke:#000000;stroke-width:0.408625px;stroke-linecap:butt;stroke-linejoin:miter;stroke-miterlimit:8;stroke-dasharray:none;stroke-opacity:1" />
    <path
       id="path27"
       d="m 21.826352,68.060394 h 8.775708 l 1.770709,1.75125 v 8.79516 H 21.826352 Z"
       style="fill:none;stroke:#000000;stroke-width:0.408625px;stroke-linecap:butt;stroke-linejoin:miter;stroke-miterlimit:8;stroke-dasharray:none;stroke-opacity:1" />
    <path
       id="path35"
       d="M 17.980921,46.766619 29.148475,35.567693 40.347402,46.766619 29.148475,57.96553 Z"
       style="fill:none;stroke:#000000;stroke-width:0.65876px;stroke-linecap:butt;stroke-linejoin:miter;stroke-miterlimit:8;stroke-dasharray:none;stroke-opacity:1" />
    <path
       id="path43"
       d="m 156.16769,132.01887 2.99658,-5.99316 h 6.94662 l 2.97713,5.99316 -2.97713,5.99317 h -6.94662 z"
       style="fill:none;stroke:#000000;stroke-width:0.408625px;stroke-linecap:butt;stroke-linejoin:miter;stroke-miterlimit:8;stroke-dasharray:none;stroke-opacity:1" />
    <path
       id="path47"
       d="M 158.64072,68.381354 170.0476,48.566953 181.45447,68.381354 Z"
       style="fill:none;stroke:#000000;stroke-width:0.585;stroke-linecap:butt;stroke-linejoin:miter;stroke-miterlimit:8;stroke-dasharray:none;stroke-opacity:1" />
    <path
       id="path55"
       d="M 123.40241,68.33941 125.635,57.235529 h 7.805 l 2.25074,11.103881 z"
       style="fill:none;stroke:#000000;stroke-width:0.424175px;stroke-linecap:butt;stroke-linejoin:miter;stroke-miterlimit:8;stroke-dasharray:none;stroke-opacity:1" />
    <path
       id="path55-4"
       d="m 33.048331,179.53233 3.69479,-15.09223 h 12.91676 l 3.724826,15.09223 z"
       style="fill:none;stroke:#000000;stroke-width:0.636173px;stroke-linecap:butt;stroke-linejoin:miter;stroke-miterlimit:8;stroke-dasharray:none;stroke-opacity:1" />
    <path
       id="path59"
       d="m 33.268532,100.91812 3.895359,-15.639076 h 16.33166 l -3.924214,15.639076 z"
       style="fill:none;stroke:#000000;stroke-width:0.605945px;stroke-linecap:butt;stroke-linejoin:miter;stroke-miterlimit:8;stroke-dasharray:none;stroke-opacity:1" />
    <path
       id="path104"
       d="m 36.644434,67.926298 h 8.808859 l 1.666541,1.590022 v 9.01012 h -9.046936 l -1.428464,-1.590022 z"
       style="fill:none;fill-opacity:1;fill-rule:evenodd;stroke:#000000;stroke-width:0.251101" />
    <text
       xml:space="preserve"
       style="font-size:4.13062px;line-height:1.25;font-family:sans-serif;stroke-width:0.129082"
       x="17.0154"
       y="109.10014"
       id="text141"><tspan
         sodipodi:role="line"
         id="tspan139"
         x="17.0154"
         y="109.10014"
         style="stroke-width:0.129082">Axis.SideOffset</tspan><tspan
         sodipodi:role="line"
         x="17.0154"
         y="114.26341"
         style="stroke-width:0.129082"
         id="tspan180">Renliy.VisionBiasiz</tspan><tspan
         sodipodi:role="line"
         x="17.0154"
         y="119.42669"
         style="stroke-width:0.129082"
         id="tspan326">Side.Rotate-O-Directly^Attach</tspan></text>
    <text
       id="text141-1"
       y="15.095155"
       x="162.49452"
       style="font-size:4.13062px;line-height:1.25;font-family:sans-serif;stroke-width:0.129082"
       xml:space="preserve"><tspan
         style="stroke-width:0.129082"
         y="15.095155"
         x="162.49452"
         id="tspan139-3"
         sodipodi:role="line">Axis.Center.Aute(Side)Inside</tspan><tspan
         style="stroke-width:0.129082"
         y="20.25843"
         x="162.49452"
         sodipodi:role="line"
         id="tspan163">Tsc.Pushed.Caeilful.Rotate</tspan><tspan
         style="stroke-width:0.129082"
         y="25.421705"
         x="162.49452"
         sodipodi:role="line"
         id="tspan161">Tricylce.Color</tspan></text>
    <path
       style="fill:none;stroke:#000000;stroke-width:0.605946px;stroke-linecap:butt;stroke-linejoin:miter;stroke-miterlimit:8;stroke-dasharray:none;stroke-opacity:1"
       d="m 33.463429,127.87657 15.63915,3.89535 v 16.33166 l -15.63915,-3.92421 z"
       id="path59-7" />
    <path
       style="fill:none;stroke:#000000;stroke-width:0.365938px;stroke-linecap:butt;stroke-linejoin:miter;stroke-miterlimit:8;stroke-dasharray:none;stroke-opacity:1"
       d="M 202.1955,59.585456 V 48.433063 l -11.15239,11.152393 z"
       id="path201" />
    <path
       id="path203"
       d="M 202.1955,59.585456 V 48.433064 l 11.15238,11.152392 z"
       style="fill:none;stroke:#000000;stroke-width:0.365938px;stroke-linecap:butt;stroke-linejoin:miter;stroke-miterlimit:8;stroke-dasharray:none;stroke-opacity:1" />
    <path
       id="path205"
       d="M 202.1955,59.585456 V 70.737849 L 191.04311,59.585456 Z"
       style="fill:none;stroke:#000000;stroke-width:0.365938px;stroke-linecap:butt;stroke-linejoin:miter;stroke-miterlimit:8;stroke-dasharray:none;stroke-opacity:1" />
    <path
       style="fill:none;stroke:#000000;stroke-width:0.365938px;stroke-linecap:butt;stroke-linejoin:miter;stroke-miterlimit:8;stroke-dasharray:none;stroke-opacity:1"
       d="M 202.1955,59.585456 V 70.737848 L 213.34788,59.585456 Z"
       id="path207" />
    <path
       style="fill:none;stroke:#000000;stroke-width:0.485119px;stroke-linecap:butt;stroke-linejoin:miter;stroke-miterlimit:8;stroke-dasharray:none;stroke-opacity:1"
       d="m 174.48908,40.047231 10.68633,10.61432 10.68634,-10.61432 z"
       id="path47-6" />
    <path
       id="path224"
       d="M 174.48908,40.047231 185.17542,29.43291 195.86175,40.047231 Z"
       style="fill:none;stroke:#000000;stroke-width:0.485119px;stroke-linecap:butt;stroke-linejoin:miter;stroke-miterlimit:8;stroke-dasharray:none;stroke-opacity:1" />
    <text
       xml:space="preserve"
       style="font-size:4.59618px;line-height:1.25;font-family:sans-serif;stroke-width:0.14363"
       x="16.812515"
       y="16.514229"
       id="text228"><tspan
         sodipodi:role="line"
         id="tspan226"
         x="16.812515"
         y="16.514229"
         style="stroke-width:0.14363">Axis.Side(Aute-O-Yein)Zenter.</tspan><tspan
         sodipodi:role="line"
         x="16.812515"
         y="22.259453"
         style="stroke-width:0.14363"
         id="tspan230">Atowards.MetricFirst)</tspan></text>
    <path
       style="fill:none;stroke:#000000;stroke-width:0.424176px;stroke-linecap:butt;stroke-linejoin:miter;stroke-miterlimit:8;stroke-dasharray:none;stroke-opacity:1"
       d="m 123.64817,72.498961 2.2326,11.103882 h 7.80499 l 2.25074,-11.103882 z"
       id="path55-3" />
    <path
       id="path55-3-0"
       d="m 121.7465,64.191221 -9.60516,2.580958 v 9.022832 l 9.60516,2.60194 z"
       style="fill:none;stroke:#000000;stroke-width:0.424176px;stroke-linecap:butt;stroke-linejoin:miter;stroke-miterlimit:8;stroke-dasharray:none;stroke-opacity:1" />
    <path
       style="fill:none;stroke:#000000;stroke-width:0.424176px;stroke-linecap:butt;stroke-linejoin:miter;stroke-miterlimit:8;stroke-dasharray:none;stroke-opacity:1"
       d="m 137.9412,64.321462 9.60516,2.580959 v 9.02284 l -9.60516,2.60193 z"
       id="path262" />
    <path
       id="path39-9-1"
       d="m 155.83471,114.7142 4.29839,-6.62425 7.69069,1.86039 0.43644,7.79061 -7.41406,2.94597 z"
       style="fill:none;stroke:#000000;stroke-width:0.380355px;stroke-linecap:butt;stroke-linejoin:miter;stroke-miterlimit:8;stroke-dasharray:none;stroke-opacity:1" />
    <path
       id="path39-9-1-5"
       d="m 359.05642,95.42977 11.17886,-8.32837 11.52218,7.88826 -4.09814,13.2197 -14.03834,0.27215 z"
       style="fill:#ececec;stroke:#000000;stroke-width:0.319006;stroke-linecap:butt;stroke-linejoin:miter;stroke-miterlimit:8;stroke-dasharray:none;stroke-opacity:1" />
    <path
       id="path59-7-6"
       d="m 32.847766,148.80095 3.89535,15.63915 h 16.33166 l -3.92421,-15.63915 z"
       style="fill:none;stroke:#000000;stroke-width:0.605946px;stroke-linecap:butt;stroke-linejoin:miter;stroke-miterlimit:8;stroke-dasharray:none;stroke-opacity:1" />
    <g
       transform="translate(6.434491,-8.934411)"
       style="fill:#e6e6e6;stroke-width:0.396875;stroke-miterlimit:4;stroke-dasharray:none"
       id="g1771">
      <path
         id="path304"
         d="m 27.028938,153.11389 0.03194,4.52484"
         style="fill:#e6e6e6;stroke:#000000;stroke-width:0.396875;stroke-linecap:butt;stroke-linejoin:miter;stroke-miterlimit:4;stroke-dasharray:none;stroke-opacity:1" />
      <path
         id="path310"
         d="m 27.060879,157.63873 15.655194,0.0967 -15.687135,-4.62158 v 0"
         style="fill:#e6e6e6;stroke:#000000;stroke-width:0.396875;stroke-linecap:butt;stroke-linejoin:miter;stroke-miterlimit:4;stroke-dasharray:none;stroke-opacity:1" />
    </g>
    <path
       id="path318"
       d="m 86.233903,156.59783 8.08715,2.01433 v 8.44527 l -8.08715,-2.02924 z"
       style="fill:none;stroke:#000000;stroke-width:0.31334px;stroke-linecap:butt;stroke-linejoin:miter;stroke-miterlimit:8;stroke-dasharray:none;stroke-opacity:1" />
    <path
       style="fill:none;stroke:#000000;stroke-width:0.31334px;stroke-linecap:butt;stroke-linejoin:miter;stroke-miterlimit:8;stroke-dasharray:none;stroke-opacity:1"
       d="m 86.233903,165.02819 -0.14743,8.33293 8.1575,2.1858 0.13299,-8.3368 z"
       id="path320" />
    <path
       id="path328"
       d="m 94.468463,158.72447 -0.14741,8.33296 8.157507,2.1858 0.13299,-8.33683 z"
       style="fill:none;stroke:#000000;stroke-width:0.31334px;stroke-linecap:butt;stroke-linejoin:miter;stroke-miterlimit:8;stroke-dasharray:none;stroke-opacity:1" />
    <path
       style="fill:none;stroke:#000000;stroke-width:0.31334px;stroke-linecap:butt;stroke-linejoin:miter;stroke-miterlimit:8;stroke-dasharray:none;stroke-opacity:1"
       d="m 78.090794,154.4159 -0.147425,8.33295 8.157524,2.1858 0.13299,-8.33682 z"
       id="path330" />
    <path
       id="path332"
       d="m 86.381323,148.26487 -0.14742,8.33296 8.15749,2.1858 0.13299,-8.33683 z"
       style="fill:none;stroke:#000000;stroke-width:0.31334px;stroke-linecap:butt;stroke-linejoin:miter;stroke-miterlimit:8;stroke-dasharray:none;stroke-opacity:1" />
    <path
       id="path334"
       d="m 85.983933,166.41801 1.24555,8.24067 8.4079,0.79351 -1.26041,-8.24207 z"
       style="fill:#ffffff;stroke:#000000;stroke-width:0.31334px;stroke-linecap:butt;stroke-linejoin:miter;stroke-miterlimit:8;stroke-dasharray:none;stroke-opacity:1" />
    <path
       id="path55-3-7"
       d="m 156.13066,94.281047 2.2927,7.507223 h 8.0151 l 2.31132,-7.507223 z"
       style="fill:none;stroke:#000000;stroke-width:0.353438px;stroke-linecap:butt;stroke-linejoin:miter;stroke-miterlimit:8;stroke-dasharray:none;stroke-opacity:1" />
    <path
       style="fill:none;stroke:#000000;stroke-width:0.294717px;stroke-linecap:butt;stroke-linejoin:miter;stroke-miterlimit:8;stroke-dasharray:none;stroke-opacity:1"
       d="m 156.31384,94.281047 6.21798,-6.73267 6.21796,6.73267 z"
       id="path224-1" />
    <text
       transform="translate(0,8.5280899)"
       style="font-size:8.46667px;line-height:1.25;font-family:sans-serif;white-space:pre;shape-inside:url(#rect1039);display:inline"
       id="text1037"
       xml:space="preserve" />
    <text
       transform="translate(0,8.5280899)"
       style="font-size:8.46667px;line-height:1.25;font-family:sans-serif;white-space:pre;shape-inside:url(#rect1116);display:inline"
       id="text1114"
       xml:space="preserve" />
    <path
       style="fill:none;stroke:#000000;stroke-width:0.605945px;stroke-linecap:butt;stroke-linejoin:miter;stroke-miterlimit:8;stroke-dasharray:none;stroke-opacity:1"
       d="m 67.011282,100.69013 3.895359,-15.639073 h 16.33166 l -3.924214,15.639073 z"
       id="path1940" />
    <path
       style="fill:none;stroke:#000000;stroke-width:0.264583px;stroke-linecap:butt;stroke-linejoin:miter;stroke-opacity:1"
       d="M 70.906641,85.051057 83.314086,100.69013"
       id="path1942" />
    <path
       style="fill:#cccccc;fill-opacity:1;fill-rule:nonzero;stroke:#666666;stroke-width:0.265;stroke-miterlimit:4;stroke-dasharray:1.06, 0.265;stroke-dashoffset:0"
       d="m 74.91325,27.517036 2.490667,-1.459375 v 0.272417 L 74.91325,24.890161 v 0 l -0.03892,-0.03892 -0.03892,-0.05837 v -0.03892 -0.05837 l 0.03892,-0.03892 0.03892,-0.03892 0.03892,-0.01946 h 0.05838 l 0.05837,0.01946 v 0 l 2.724166,1.576125 -2.724166,1.595583 v 0 l -0.05837,0.01946 h -0.05838 l -0.03892,-0.01946 -0.03892,-0.03892 -0.03892,-0.03892 v -0.05837 -0.05837 l 0.03892,-0.03892 z M 59.813584,26.038203 H 77.48175 v 0 0.311333 0 H 59.813584 v 0 z"
       id="path1944" />
    <path
       style="fill:none;fill-opacity:1;fill-rule:nonzero;stroke:#000000;stroke-width:0.265;stroke-miterlimit:4;stroke-dasharray:1.06, 0.265;stroke-dashoffset:0"
       d="m 80.672922,24.870698 -2.490667,1.459375 v -0.272417 l 2.490667,1.459375 v 0 l 0.03892,0.03892 0.01946,0.03892 0.01946,0.05837 -0.01946,0.03892 -0.01946,0.05837 -0.03892,0.03892 -0.05837,0.01946 h -0.05838 l -0.03892,-0.01946 v 0 l -2.724166,-1.595585 2.724166,-1.595583 v 0 l 0.03892,-0.01946 h 0.05838 l 0.05837,0.01946 0.03892,0.03892 0.01946,0.05837 0.01946,0.03892 -0.01946,0.05837 -0.01946,0.03892 z m 11.733375,2.646333 2.490666,-1.459375 v 0.272417 l -2.490666,-1.459375 v 0 l -0.03892,-0.03892 -0.01946,-0.03892 -0.01946,-0.05837 0.01946,-0.03892 0.01946,-0.05838 0.03892,-0.03892 0.05838,-0.01946 h 0.05837 l 0.03892,0.01946 v 0 l 2.724167,1.595583 -2.724167,1.595583 v 0 l -0.03892,0.01946 h -0.05837 l -0.05838,-0.01946 -0.03892,-0.03892 -0.01946,-0.05837 -0.01946,-0.03892 0.01946,-0.05837 0.01946,-0.03892 z M 78.104422,26.038198 h 16.870375 v 0 0.311333 0 H 78.104422 v 0 z"
       id="path1946" />
    <text
       xml:space="preserve"
       style="font-size:3.52777px;line-height:1.25;font-family:sans-serif;stroke-width:0.264583"
       x="231.01965"
       y="37.147774"
       id="text147"><tspan
         sodipodi:role="line"
         id="tspan145"
         x="231.01965"
         y="37.147774"
         style="stroke-width:0.264583">正五边形 视觉偏差 </tspan><tspan
         sodipodi:role="line"
         x="231.01965"
         y="41.646332"
         style="stroke-width:0.264583"
         id="tspan149">  视觉</tspan><tspan
         sodipodi:role="line"
         x="231.01965"
         y="46.144897"
         style="stroke-width:0.264583"
         id="tspan157">  视力偏差</tspan><tspan
         sodipodi:role="line"
         x="231.01965"
         y="50.643456"
         style="stroke-width:0.264583"
         id="tspan153">  时差</tspan><tspan
         sodipodi:role="line"
         x="231.01965"
         y="55.142021"
         style="stroke-width:0.264583"
         id="tspan155">  察觉</tspan><tspan
         sodipodi:role="line"
         x="231.01965"
         y="59.640579"
         style="stroke-width:0.264583"
         id="tspan159">?钝角组合梯形是正五边形</tspan><tspan
         sodipodi:role="line"
         x="231.01965"
         y="64.139137"
         style="stroke-width:0.264583"
         id="tspan151">亚子角 //?中心顶角</tspan></text>
    <path
       id="path3141"
       d="m 94.318102,45.848754 6.111228,10.615559 6.11123,-10.615559 z"
       style="fill:none;stroke:#000000;stroke-width:0.366879px;stroke-linecap:butt;stroke-linejoin:miter;stroke-miterlimit:8;stroke-dasharray:none;stroke-opacity:1" />
    <path
       id="path3143"
       d="m 94.318102,45.848754 6.111228,-10.61556 6.11123,10.61556 z"
       style="fill:none;stroke:#000000;stroke-width:0.366879px;stroke-linecap:butt;stroke-linejoin:miter;stroke-miterlimit:8;stroke-dasharray:none;stroke-opacity:1" />
    <path
       id="path155"
       d="m 93.319133,88.319289 3.027356,-7.979495 h 10.583441 l 3.05199,7.979495 z"
       style="fill:none;stroke:#000000;stroke-width:0.41872px;stroke-linecap:butt;stroke-linejoin:miter;stroke-miterlimit:8;stroke-dasharray:none;stroke-opacity:1" />
    <text
       xml:space="preserve"
       style="font-size:3.52777px;line-height:1.25;font-family:sans-serif;stroke-width:0.264583"
       x="62.741344"
       y="62.689865"
       id="text160"><tspan
         sodipodi:role="line"
         id="tspan158"
         x="62.741344"
         y="62.689865"
         style="stroke-width:0.264583">Duplikr.Inside</tspan></text>
    <path
       id="path162"
       d="m 93.319133,88.319289 3.027356,7.979472 h 10.583441 l 3.05199,-7.979472 z"
       style="fill:none;stroke:#000000;stroke-width:0.41872px;stroke-linecap:butt;stroke-linejoin:miter;stroke-miterlimit:8;stroke-dasharray:none;stroke-opacity:1" />
    <path
       id="path982"
       d="m 310.86894,96.931392 -3.31369,1.00757 0.22852,0.26614 0.88149,-3.84018 v 0 -0.076 l -0.0164,-0.0951 -0.0326,-0.038 -0.049,-0.057 h -0.0653 -0.0653 l -0.049,0.019 -0.049,0.057 -0.0326,0.0761 v 0 l -0.96309,4.2014 3.62384,-1.10263 v 0 l 0.0653,-0.038 0.049,-0.057 0.0163,-0.057 v -0.076 -0.076 l -0.049,-0.057 -0.049,-0.057 h -0.0653 z m 11.42658,-16.19725 -14.8219,17.26185 v 0 l 0.26118,0.30417 v 0 l 14.8219,-17.26185 v 0 z"
       style="fill:none;fill-opacity:1;fill-rule:nonzero;stroke:#000000;stroke-width:0.338751" />
    <path
       style="fill:none;fill-opacity:1;fill-rule:evenodd;stroke:#000000;stroke-width:0.371697"
       d="m 178.63744,97.96136 v 7.36967 h 25.74957 v -7.36967 z"
       id="path984" />
    <path
       style="fill:none;stroke:#000000;stroke-width:0.559174px;stroke-linecap:butt;stroke-linejoin:miter;stroke-miterlimit:8;stroke-dasharray:none;stroke-opacity:1"
       d="m 178.72247,97.91689 4.65913,-9.246555 h 16.28802 l 4.69707,9.246555 z"
       id="path986" />
    <path
       style="fill:none;stroke:#000000;stroke-width:0.547964px;stroke-linecap:butt;stroke-linejoin:miter;stroke-miterlimit:8;stroke-dasharray:none;stroke-opacity:1"
       d="m 178.66185,105.34296 4.66942,8.86003 h 16.32391 l 4.70741,-8.86003 z"
       id="path988" />
    <text
       xml:space="preserve"
       style="font-size:4.7865px;line-height:1.25;font-family:sans-serif;fill:none;stroke-width:0.149578"
       x="104.01623"
       y="108.16998"
       id="text992"><tspan
         sodipodi:role="line"
         id="tspan990"
         x="104.01623"
         y="108.16998"
         style="fill:none;stroke-width:0.149578">边.塌陷于延展</tspan><tspan
         sodipodi:role="line"
         x="104.01623"
         y="114.27366"
         style="fill:none;stroke-width:0.149578"
         id="tspan994">角.顿开个数</tspan></text>
    <path
       style="fill:none;stroke:#000000;stroke-width:0.65876px;stroke-linecap:butt;stroke-linejoin:miter;stroke-miterlimit:8;stroke-dasharray:none;stroke-opacity:1"
       d="m 62.014618,54.187768 -0.02218,-15.815489 15.837674,-10e-7 -1.2e-5,15.837663 z"
       id="path996" />
    <path
       style="fill:none;stroke:#000000;stroke-width:0.314277;stroke-linecap:butt;stroke-linejoin:miter;stroke-miterlimit:8;stroke-dasharray:none;stroke-opacity:1"
       d="m 358.63374,108.84607 -0.0329,-22.00154 h 23.49391 l -2e-5,22.03238 z"
       id="path996-8" />
    <text
       xml:space="preserve"
       style="font-size:3.37731px;line-height:1.25;font-family:sans-serif;fill:none;stroke-width:0.105541"
       x="95.66288"
       y="48.57695"
       id="text992-7"><tspan
         sodipodi:role="line"
         id="tspan990-9"
         x="95.66288"
         y="48.57695"
         style="fill:none;stroke-width:0.105541">边.塌陷于延展</tspan><tspan
         sodipodi:role="line"
         x="95.66288"
         y="52.883648"
         style="fill:none;stroke-width:0.105541"
         id="tspan994-9">角.顿开个数</tspan></text>
    <path
       style="fill:none;fill-opacity:1;fill-rule:nonzero;stroke:#000000;stroke-width:0.424576;stroke-miterlimit:4;stroke-dasharray:1.69831, 0.424576;stroke-dashoffset:0"
       d="m 88.752933,53.631872 -4.79985,0.09989 0.220228,-0.367444 2.440283,3.837018 v 0 l 0.0251,0.0817 -0.0031,0.06709 -0.01891,0.09333 -0.05974,0.03789 -0.07547,0.06412 -0.08804,0.02331 -0.100573,-0.01755 -0.08486,-0.04381 -0.04084,-0.05544 v 0 l -2.66955,-4.195922 5.24934,-0.108441 v 0 l 0.0723,0.003 0.08486,0.04381 0.0691,0.07005 0.02511,0.0817 -0.01891,0.09334 -0.0031,0.06709 -0.07547,0.06412 -0.05976,0.03789 z m 14.914567,12.372155 4.79985,-0.0999 -0.22023,0.367447 -2.44029,-3.83702 v 0 l -0.0251,-0.0817 0.003,-0.06709 0.0189,-0.09333 0.0597,-0.03789 0.0755,-0.06415 0.088,-0.0233 0.10059,0.01756 0.0848,0.04378 0.0408,0.05544 v 0 l 2.66955,4.19592 -5.24934,0.108442 v 0 l -0.0723,-0.003 -0.0848,-0.04378 -0.0691,-0.07005 -0.0251,-0.0817 0.0189,-0.09333 0.003,-0.06709 0.0755,-0.06412 0.0597,-0.03788 z M 84.075913,53.279679 108.59621,65.936284 v 0 l -0.25169,0.419935 v 0 L 83.824227,53.699615 v 0 z"
       id="path1026" />
    <path
       id="path1028"
       d="m 46.049259,46.47498 -2.490667,1.459375 v -0.272417 l 2.490667,1.459375 v 0 l 0.03892,0.03892 0.01946,0.03892 0.01946,0.05837 -0.01946,0.03892 -0.01946,0.05837 -0.03892,0.03892 -0.05837,0.01946 h -0.05838 l -0.03892,-0.01946 v 0 l -2.724166,-1.595585 2.724166,-1.595583 v 0 l 0.03892,-0.01946 h 0.05838 l 0.05837,0.01946 0.03892,0.03892 0.01946,0.05837 0.01946,0.03892 -0.01946,0.05837 -0.01946,0.03892 z m 11.733375,2.646333 2.490666,-1.459375 v 0.272417 L 57.782634,46.47498 v 0 l -0.03892,-0.03892 -0.01946,-0.03892 -0.01946,-0.05837 0.01946,-0.03892 0.01946,-0.05838 0.03892,-0.03892 0.05838,-0.01946 h 0.05837 l 0.03892,0.01946 v 0 l 2.724167,1.595583 -2.724167,1.595583 v 0 l -0.03892,0.01946 h -0.05837 l -0.05838,-0.01946 -0.03892,-0.03892 -0.01946,-0.05837 -0.01946,-0.03892 0.01946,-0.05837 0.01946,-0.03892 z M 43.480759,47.64248 h 16.870375 v 0 0.311333 0 H 43.480759 v 0 z"
       style="fill:none;fill-opacity:1;fill-rule:nonzero;stroke:#000000;stroke-width:0.264583" />
    <g
       style="fill:none;stroke-width:0.396875;stroke-miterlimit:4;stroke-dasharray:none"
       transform="matrix(0,-1,-1,0,189.85697,191.46904)"
       id="g1777">
      <path
         style="fill:none;stroke:#000000;stroke-width:0.396875;stroke-linecap:butt;stroke-linejoin:miter;stroke-miterlimit:4;stroke-dasharray:none;stroke-opacity:1"
         d="m 27.028938,153.11389 0.03194,4.52484"
         id="path1773" />
      <path
         style="fill:none;stroke:#000000;stroke-width:0.396875;stroke-linecap:butt;stroke-linejoin:miter;stroke-miterlimit:4;stroke-dasharray:none;stroke-opacity:1"
         d="m 27.060879,157.63873 15.655194,0.0967 -15.687135,-4.62158 v 0"
         id="path1775" />
    </g>
    <g
       style="fill:none;stroke-width:0.396875;stroke-miterlimit:4;stroke-dasharray:none"
       id="g1783"
       transform="matrix(0,1,1,0,-103.96329,121.77201)">
      <path
         id="path1779"
         d="m 27.028938,153.11389 0.03194,4.52484"
         style="fill:none;stroke:#000000;stroke-width:0.396875;stroke-linecap:butt;stroke-linejoin:miter;stroke-miterlimit:4;stroke-dasharray:none;stroke-opacity:1" />
      <path
         id="path1781"
         d="m 27.060879,157.63873 15.655194,0.0967 -15.687135,-4.62158 v 0"
         style="fill:none;stroke:#000000;stroke-width:0.396875;stroke-linecap:butt;stroke-linejoin:miter;stroke-miterlimit:4;stroke-dasharray:none;stroke-opacity:1" />
    </g>
    <g
       id="g1690"
       transform="rotate(90,67.27167,108.58509)">
      <path
         id="path59-7-6-2-8"
         d="m 68.467398,242.74085 3.89535,15.63915 h 16.33166 l -3.92421,-15.63915 z"
         style="fill:#ffff00;stroke:#000000;stroke-width:0.605946px;stroke-linecap:butt;stroke-linejoin:miter;stroke-miterlimit:8;stroke-dasharray:none;stroke-opacity:1" />
      <path
         style="fill:none;stroke:#000000;stroke-width:0.65876px;stroke-linecap:butt;stroke-linejoin:miter;stroke-miterlimit:8;stroke-dasharray:none;stroke-opacity:1"
         d="m 72.937922,258.45685 -0.02218,-15.81549 h 15.837674 l -1.2e-5,15.83766 z"
         id="path929-7" />
    </g>
    <path
       id="path1600"
       d="m -82.622255,130.06682 3.89535,15.63915 h 16.33167 l -3.92421,-15.63915 z"
       style="fill:#ffff00;stroke:#000000;stroke-width:0.605946px;stroke-linecap:butt;stroke-linejoin:miter;stroke-miterlimit:8;stroke-dasharray:none;stroke-opacity:1" />
    <g
       id="g1797"
       transform="matrix(0,-1,-1,0,175.75729,178.1899)">
      <path
         id="path1793"
         d="m 68.467398,242.74085 3.89535,15.63915 h 16.33166 l -3.92421,-15.63915 z"
         style="fill:#ffff00;stroke:#000000;stroke-width:0.605946px;stroke-linecap:butt;stroke-linejoin:miter;stroke-miterlimit:8;stroke-dasharray:none;stroke-opacity:1" />
      <path
         style="fill:none;stroke:#000000;stroke-width:0.65876px;stroke-linecap:butt;stroke-linejoin:miter;stroke-miterlimit:8;stroke-dasharray:none;stroke-opacity:1"
         d="m 72.937922,258.45685 -0.02218,-15.81549 h 15.837674 l -1.2e-5,15.83766 z"
         id="path1795" />
    </g>
    <path
       id="path1799"
       d="m -45.960585,96.49817 8.8829,8.85801 -8.8829,8.88292 -8.8829,-8.88292 z"
       style="fill:none;stroke:#000000;stroke-width:0.522524px;stroke-linecap:butt;stroke-linejoin:miter;stroke-miterlimit:8;stroke-dasharray:none;stroke-opacity:1" />
    <path
       style="fill:none;stroke:#000000;stroke-width:0.396596;stroke-linecap:butt;stroke-linejoin:miter;stroke-miterlimit:8;stroke-dasharray:none;stroke-opacity:1"
       d="m -55.036125,114.27789 -0.0255,-18.17826 h 18.20376 l -1e-5,18.20374 z"
       id="path1801" />
    <path
       style="fill:none;stroke:#000000;stroke-width:0.396596;stroke-linecap:butt;stroke-linejoin:miter;stroke-miterlimit:8;stroke-dasharray:none;stroke-opacity:1"
       d="m -45.893115,105.64376 -0.0255,-18.17825 h 18.20375 l -10e-6,18.20373 z"
       id="path1801-2" />
    <path
       style="fill:none;stroke:#000000;stroke-width:0.396596;stroke-linecap:butt;stroke-linejoin:miter;stroke-miterlimit:8;stroke-dasharray:none;stroke-opacity:1"
       d="m -36.857875,114.30337 -0.0255,-18.17826 h 18.20375 l -2e-5,18.20374 z"
       id="path2051" />
    <path
       id="path2152"
       d="m -37.077685,87.61525 8.88291,8.85801 -8.88291,8.88292 -8.88289,-8.88292 z"
       style="fill:none;stroke:#000000;stroke-width:0.522524px;stroke-linecap:butt;stroke-linejoin:miter;stroke-miterlimit:8;stroke-dasharray:none;stroke-opacity:1" />
    <path
       style="fill:none;stroke:#ff0000;stroke-width:0.358794px;stroke-linecap:butt;stroke-linejoin:miter;stroke-opacity:1"
       d="m -27.477185,96.47326 v 17.49579 0.53819"
       id="path2213" />
    <path
       style="fill:none;stroke:#ff0000;stroke-width:0.358794px;stroke-linecap:butt;stroke-linejoin:miter;stroke-opacity:1"
       d="m -46.134515,96.47326 v 17.49579 0.53819"
       id="path2328" />
    <g
       id="g3572"
       transform="matrix(-1,0,0,1,168.41344,-62.964109)"
       style="fill:none">
      <path
         id="path3564"
         d="m 75.712483,203.9235 -17.158558,-0.10545 8.707572,-14.78531 z"
         style="fill:none;stroke:#000000;stroke-width:0.51394px;stroke-linecap:butt;stroke-linejoin:miter;stroke-miterlimit:8;stroke-dasharray:none;stroke-opacity:1" />
      <path
         id="path3566"
         d="m 75.712483,203.9235 8.70757,-14.78531 -17.158556,-0.10545 z"
         style="fill:none;stroke:#000000;stroke-width:0.51394px;stroke-linecap:butt;stroke-linejoin:miter;stroke-miterlimit:8;stroke-dasharray:none;stroke-opacity:1" />
      <path
         id="path3568"
         d="m 75.712483,203.9235 -17.158558,-0.10545 8.707572,-14.78531 z"
         style="fill:none;stroke:#000000;stroke-width:0.51394px;stroke-linecap:butt;stroke-linejoin:miter;stroke-miterlimit:8;stroke-dasharray:none;stroke-opacity:1" />
      <path
         id="path3570"
         d="m 75.712483,203.9235 8.70757,-14.78531 -17.158556,-0.10545 z"
         style="fill:none;stroke:#000000;stroke-width:0.51394px;stroke-linecap:butt;stroke-linejoin:miter;stroke-miterlimit:8;stroke-dasharray:none;stroke-opacity:1" />
    </g>
    <g
       style="fill:none;stroke-width:0.396875;stroke-miterlimit:4;stroke-dasharray:none"
       transform="matrix(0,0.97484997,-1.0008206,0,189.92404,138.1646)"
       id="g1008">
      <path
         style="fill:none;stroke:#000000;stroke-width:0.396875;stroke-linecap:butt;stroke-linejoin:miter;stroke-miterlimit:4;stroke-dasharray:none;stroke-opacity:1"
         d="m 27.028938,153.11389 0.03194,4.52484"
         id="path1004" />
      <path
         style="fill:none;stroke:#000000;stroke-width:0.396875;stroke-linecap:butt;stroke-linejoin:miter;stroke-miterlimit:4;stroke-dasharray:none;stroke-opacity:1"
         d="m 27.060879,157.63873 15.655194,0.0967 -15.687135,-4.62158 v 0"
         id="path1006" />
    </g>
    <g
       style="fill:none;stroke-width:0.396875;stroke-miterlimit:4;stroke-dasharray:none"
       transform="matrix(0,1,1,0,-103.37926,137.41116)"
       id="g1014">
      <path
         style="fill:none;stroke:#000000;stroke-width:0.396875;stroke-linecap:butt;stroke-linejoin:miter;stroke-miterlimit:4;stroke-dasharray:none;stroke-opacity:1"
         d="m 27.028938,153.11389 0.03194,4.52484"
         id="path1010" />
      <path
         style="fill:none;stroke:#000000;stroke-width:0.396875;stroke-linecap:butt;stroke-linejoin:miter;stroke-miterlimit:4;stroke-dasharray:none;stroke-opacity:1"
         d="m 27.060879,157.63873 15.655194,0.0967 -15.687135,-4.62158 v 0"
         id="path1012" />
    </g>
    <path
       id="path1799-2"
       d="M 370.51968,63.34186 382.03048,74.8204 370.51968,86.33121 359.00889,74.8204 Z"
       style="fill:none;stroke:#000000;stroke-width:0.377963;stroke-linecap:butt;stroke-linejoin:miter;stroke-miterlimit:6.66667;stroke-dasharray:none;stroke-opacity:1" />
    <path
       style="fill:none;stroke:#000000;stroke-width:0.377963;stroke-linecap:butt;stroke-linejoin:miter;stroke-miterlimit:6.66667;stroke-dasharray:none;stroke-opacity:1"
       d="m 358.75926,86.38148 -0.033,-23.55607 h 23.5891 l -2e-5,23.58908 z"
       id="path1801-1" />
    <text
       xml:space="preserve"
       style="font-size:4.49771px;line-height:1.25;font-family:sans-serif;word-spacing:0px;stroke-width:0.21083"
       x="-76.736839"
       y="46.974945"
       id="text6736"><tspan
         sodipodi:role="line"
         id="tspan6734"
         style="stroke-width:0.21083"
         x="-76.736839"
         y="46.974945">Ryber.Notwith</tspan><tspan
         sodipodi:role="line"
         style="stroke-width:0.21083"
         x="-76.736839"
         y="52.597084"
         id="tspan6740">  Rect0^1angle</tspan><tspan
         sodipodi:role="line"
         style="stroke-width:0.21083"
         x="-76.736839"
         y="58.219219"
         id="tspan8904">  Kcolpase</tspan><tspan
         sodipodi:role="line"
         style="stroke-width:0.21083"
         x="-76.736839"
         y="63.841358"
         id="tspan8902">Swoopedin</tspan><tspan
         sodipodi:role="line"
         style="stroke-width:0.21083"
         x="-76.736839"
         y="69.463501"
         id="tspan6738">Wrapper</tspan></text>
    <text
       xml:space="preserve"
       style="font-size:3.64723px;line-height:1.25;font-family:sans-serif;word-spacing:0px;stroke-width:0.170964"
       x="390.02771"
       y="61.394047"
       id="text6736-4"><tspan
         sodipodi:role="line"
         style="stroke-width:0.170964"
         x="390.02771"
         y="61.394047"
         id="tspan6738-6">Name?=Kater:EyeVision.Offset</tspan><tspan
         sodipodi:role="line"
         style="stroke-width:0.170964"
         x="390.02771"
         y="65.953079"
         id="tspan11241">  Flat.SideCentral</tspan><tspan
         sodipodi:role="line"
         style="stroke-width:0.170964"
         x="390.02771"
         y="70.512123"
         id="tspan9257">     InparallelVisionally.Discomfort.horizontally </tspan><tspan
         sodipodi:role="line"
         style="stroke-width:0.170964"
         x="390.02771"
         y="75.071159"
         id="tspan11243">  Matical</tspan><tspan
         sodipodi:role="line"
         style="stroke-width:0.170964"
         x="390.02771"
         y="79.630196"
         id="tspan2299">Odimentialled:BypassBias</tspan><tspan
         sodipodi:role="line"
         style="stroke-width:0.170964"
         x="390.02771"
         y="84.189232"
         id="tspan2301">  Pendigon</tspan><tspan
         sodipodi:role="line"
         style="stroke-width:0.170964"
         x="390.02771"
         y="88.748268"
         id="tspan2151">Komet?:Cao^emit</tspan></text>
    <path
       id="path1067"
       d="m 390.82624,121.54419 11.17885,-8.32837 11.52219,7.88826 -4.09814,13.2197 -14.03835,0.27215 z"
       style="fill:#ececec;stroke:#000000;stroke-width:0.319006;stroke-linecap:butt;stroke-linejoin:miter;stroke-miterlimit:8;stroke-dasharray:none;stroke-opacity:1" />
    <path
       style="fill:none;stroke:#000000;stroke-width:0.314277;stroke-linecap:butt;stroke-linejoin:miter;stroke-miterlimit:8;stroke-dasharray:none;stroke-opacity:1"
       d="m 390.11916,157.66169 -0.0329,-22.00154 h 23.4939 l -2e-5,22.03238 z"
       id="path1069" />
    <g
       id="g1077"
       style="fill:#cccccc"
       transform="matrix(1.0765609,0,0,1.0765609,290.79214,-101.31009)">
      <path
         id="path1071"
         d="m 108.5668,240.17067 -10.947366,-0.0673 5.555536,-9.43321 z"
         style="fill:#cccccc;stroke:#000000;stroke-width:0.3279px;stroke-linecap:butt;stroke-linejoin:miter;stroke-miterlimit:8;stroke-dasharray:none;stroke-opacity:1" />
      <path
         id="path1073"
         d="m 108.5668,240.17067 5.55553,-9.43321 -10.94736,-0.0673 z"
         style="fill:#cccccc;stroke:#000000;stroke-width:0.3279px;stroke-linecap:butt;stroke-linejoin:miter;stroke-miterlimit:8;stroke-dasharray:none;stroke-opacity:1" />
      <path
         id="path1075"
         d="m 97.619434,240.23795 5.555536,-9.43321 -10.947364,-0.0673 z"
         style="fill:#cccccc;stroke:#000000;stroke-width:0.3279px;stroke-linecap:butt;stroke-linejoin:miter;stroke-miterlimit:8;stroke-dasharray:none;stroke-opacity:1" />
    </g>
    <path
       id="path1079"
       d="m 402.00509,112.15748 11.5108,11.47854 -11.5108,11.51081 -11.51079,-11.51081 z"
       style="fill:none;stroke:#000000;stroke-width:0.377963;stroke-linecap:butt;stroke-linejoin:miter;stroke-miterlimit:6.66667;stroke-dasharray:none;stroke-opacity:1" />
    <path
       style="fill:none;stroke:#000000;stroke-width:0.377963;stroke-linecap:butt;stroke-linejoin:miter;stroke-miterlimit:6.66667;stroke-dasharray:none;stroke-opacity:1"
       d="m 390.24467,135.1971 -0.033,-23.55607 h 23.5891 l -2e-5,23.58908 z"
       id="path1081" />
    <path
       id="path3505"
       d="m 402.00509,135.14683 11.5108,11.47854 -11.5108,11.51081 -11.51079,-11.51081 z"
       style="fill:none;stroke:#000000;stroke-width:0.377963;stroke-linecap:butt;stroke-linejoin:miter;stroke-miterlimit:6.66667;stroke-dasharray:none;stroke-opacity:1" />
    <g
       id="g7271"
       style="fill:#cccccc"
       transform="matrix(1.0765609,0,0,1.0765609,259.58605,-150.00439)">
      <path
         id="path7265"
         d="m 108.5668,240.17067 -10.947366,-0.0673 5.555536,-9.43321 z"
         style="fill:#cccccc;stroke:#000000;stroke-width:0.3279px;stroke-linecap:butt;stroke-linejoin:miter;stroke-miterlimit:8;stroke-dasharray:none;stroke-opacity:1" />
      <path
         id="path7267"
         d="m 108.5668,240.17067 5.55553,-9.43321 -10.94736,-0.0673 z"
         style="fill:#cccccc;stroke:#000000;stroke-width:0.3279px;stroke-linecap:butt;stroke-linejoin:miter;stroke-miterlimit:8;stroke-dasharray:none;stroke-opacity:1" />
      <path
         id="path7269"
         d="m 97.619434,240.23795 5.555536,-9.43321 -10.947364,-0.0673 z"
         style="fill:#cccccc;stroke:#000000;stroke-width:0.3279px;stroke-linecap:butt;stroke-linejoin:miter;stroke-miterlimit:8;stroke-dasharray:none;stroke-opacity:1" />
    </g>
    <path
       style="fill:#e6e6e6;stroke:#000000;stroke-width:0.522524px;stroke-linecap:butt;stroke-linejoin:miter;stroke-miterlimit:8;stroke-dasharray:none;stroke-opacity:1"
       d="m -34.045035,129.69424 -0.0176,-12.54473 h 12.56233 l -10e-6,12.56232 z"
       id="path16749" />
    <path
       style="fill:none;stroke:#000000;stroke-width:0.396596;stroke-linecap:butt;stroke-linejoin:miter;stroke-miterlimit:8;stroke-dasharray:none;stroke-opacity:1"
       d="m -36.857895,132.50711 -0.0255,-18.17826 h 18.20375 l -10e-6,18.20374 z"
       id="path16751" />
    <path
       style="fill:none;stroke:#ff0000;stroke-width:0.359767px;stroke-linecap:butt;stroke-linejoin:miter;stroke-opacity:1"
       d="m -21.501045,114.69476 2.77888,17.3675 0.0855,0.53425"
       id="path16753" />
    <path
       style="fill:none;stroke:#ff0000;stroke-width:0.358794px;stroke-linecap:butt;stroke-linejoin:miter;stroke-opacity:1"
       d="m -36.846885,114.79147 2.77888,17.27368 0.0855,0.53136"
       id="path16755" />
    <path
       style="fill:none;stroke:#000000;stroke-width:0.396596;stroke-linecap:butt;stroke-linejoin:miter;stroke-miterlimit:8;stroke-dasharray:none;stroke-opacity:1"
       d="m -53.644055,158.42893 -0.0255,-18.17826 h 18.20375 l -10e-6,18.20374 z"
       id="path17184" />
    <path
       style="fill:none;stroke:#ff0000;stroke-width:0.363833px;stroke-linecap:butt;stroke-linejoin:miter;stroke-opacity:1"
       d="m -40.968525,140.46605 4.90124,17.27564 0.15076,0.53143"
       id="path17186" />
    <path
       style="fill:none;stroke:#ff0000;stroke-width:0.358794px;stroke-linecap:butt;stroke-linejoin:miter;stroke-opacity:1"
       d="m -53.543565,141.08821 5.68552,16.54621 0.17489,0.50899"
       id="path17188" />
    <path
       style="fill:none;stroke:#000000;stroke-width:0.196983;stroke-linecap:butt;stroke-linejoin:miter;stroke-miterlimit:8;stroke-dasharray:none;stroke-opacity:1"
       d="m -49.075835,153.86071 -0.0127,-9.02885 h 9.04152 l -10e-6,9.0415 z"
       id="path17270" />
    <path
       style="fill:none;stroke:#000000;stroke-width:0.264583px;stroke-linecap:butt;stroke-linejoin:miter;stroke-opacity:1"
       d="m -39.932545,153.9878 4.46674,4.46661"
       id="path17305" />
    <path
       style="fill:none;stroke:#000000;stroke-width:0.264583px;stroke-linecap:butt;stroke-linejoin:miter;stroke-opacity:1"
       d="m -49.189945,153.9748 -4.45411,4.45413"
       id="path17420" />
    <text
       xml:space="preserve"
       style="font-size:2.86876px;line-height:1.25;font-family:sans-serif;word-spacing:0px;stroke-width:0.134473"
       x="218.04581"
       y="90.708725"
       id="text2870"><tspan
         sodipodi:role="line"
         id="tspan2868"
         style="stroke-width:0.134473"
         x="218.04581"
         y="90.708725">Retina?.SevenColour.Pollyect</tspan><tspan
         sodipodi:role="line"
         style="stroke-width:0.134473"
         x="218.04581"
         y="94.294678"
         id="tspan2874">  Black.Universa</tspan><tspan
         sodipodi:role="line"
         style="stroke-width:0.134473"
         x="218.04581"
         y="97.880623"
         id="tspan3356">  Biasis.Vesaid.Translect.AtmosFlyer</tspan><tspan
         sodipodi:role="line"
         style="stroke-width:0.134473"
         x="218.04581"
         y="101.46658"
         id="tspan7442">  Young^us.Uranus.Uranium 铀天王星</tspan><tspan
         sodipodi:role="line"
         style="stroke-width:0.134473"
         x="218.04581"
         y="105.12478"
         id="tspan7440">  </tspan><tspan
         sodipodi:role="line"
         style="stroke-width:0.134473"
         x="218.04581"
         y="108.78297"
         id="tspan4828">  Blue.SayGaya</tspan><tspan
         sodipodi:role="line"
         style="stroke-width:0.134473"
         x="218.04581"
         y="112.36893"
         id="tspan2872">Rainbow</tspan></text>
  </g>
</svg>
